<svg xmlns="http://www.w3.org/2000/svg" xmlns:xlink="http://www.w3.org/1999/xlink" enable-background="new 0 0 1000 1000" viewBox="0 0 1000 1000" id="online-teaching"><path fill="#c2d8f2" d="M771.8,718.95c0,0,2.28-88.99-15.67-141.85c-17.95-52.87,38.27-108.84,7.79-185.58    c-22.48-56.6-151.11-159.02-285.56-112.14c-102.07,35.59-55.25,84.67-75.46,137.45c-20.21,52.79-49.67,111.09-60.32,122.7    c-10.65,11.61,9.92-44.81,9.97-69.92c0.05-25.11-76.03-1.73-101.39,36.54c-25.37,38.27,7.8,159.17,21.09,183.03    c13.29,23.86,45.67,29.77,45.67,29.77L771.8,718.95z"></path><path fill="#9bd" d="M720.31 483.53c-6.76 0-12.26-5.5-12.26-12.26 0-6.76 5.5-12.26 12.26-12.26 6.76 0 12.26 5.5 12.26 12.26C732.56 478.03 727.06 483.53 720.31 483.53zM720.31 461.98c-5.12 0-9.29 4.17-9.29 9.29 0 5.12 4.17 9.29 9.29 9.29s9.29-4.17 9.29-9.29C729.59 466.15 725.43 461.98 720.31 461.98zM340.71 338.19c-6.76 0-12.26-5.5-12.26-12.26s5.5-12.26 12.26-12.26 12.26 5.5 12.26 12.26S347.47 338.19 340.71 338.19zM340.71 316.65c-5.12 0-9.29 4.17-9.29 9.29s4.17 9.29 9.29 9.29 9.29-4.17 9.29-9.29S345.83 316.65 340.71 316.65zM228.03 530.93c-6.76 0-12.26-5.5-12.26-12.26 0-6.76 5.5-12.26 12.26-12.26s12.26 5.5 12.26 12.26C240.28 525.43 234.78 530.93 228.03 530.93zM228.03 509.39c-5.12 0-9.29 4.17-9.29 9.29 0 5.12 4.17 9.29 9.29 9.29 5.12 0 9.29-4.17 9.29-9.29C237.31 513.55 233.15 509.39 228.03 509.39zM523.09 338.19c-6.76 0-12.26-5.5-12.26-12.26s5.5-12.26 12.26-12.26c6.76 0 12.26 5.5 12.26 12.26S529.85 338.19 523.09 338.19zM523.09 316.65c-5.12 0-9.29 4.17-9.29 9.29s4.17 9.29 9.29 9.29c5.12 0 9.29-4.17 9.29-9.29S528.21 316.65 523.09 316.65zM241.48 496.4c-.22 0-.44-.02-.67-.06l-12.05-2.29h0 0c-1.38-.26-2.48-1.31-2.81-2.67l-1.09-4.46 22.2 4.23-2.65 3.75C243.73 495.84 242.63 496.4 241.48 496.4zM228.84 490.69c.06.22.25.39.47.43h0l12.05 2.29c.23.04.46-.05.6-.23L228.84 490.69z"></path><path fill="#9bd" d="M245.36,493.68c-0.51,0-1.03-0.05-1.55-0.15l-16.8-3.2c-2.36-0.45-4.41-1.9-5.61-3.99l-3.93-6.83        c-0.98-1.71-1.32-3.72-0.95-5.66l3.5-18.38l43.1,8.21l-3.5,18.38c-0.37,1.94-1.42,3.68-2.97,4.91l-6.16,4.9        C249.02,493.06,247.21,493.68,245.36,493.68z M222.38,458.96l-2.94,15.46c-0.24,1.24-0.02,2.53,0.61,3.62l3.93,6.83        c0.77,1.33,2.08,2.26,3.59,2.55l16.8,3.2c1.51,0.29,3.07-0.1,4.27-1.06l6.16-4.9c0.99-0.79,1.66-1.9,1.9-3.14l2.94-15.46        L222.38,458.96z"></path><path fill="#9bd" d="M261.19,466.26c-0.28,0-0.57-0.02-0.86-0.07c-13.15-0.67-26.2-3.15-38.8-7.39        c-2.6-0.55-4.39-3.02-4.11-5.67c1.25-11.63-1.24-16.09-5.01-22.85c-1.85-3.32-3.95-7.09-6.09-12.42l-0.12-0.29        c-0.11-0.28-0.22-0.57-0.33-0.85l-0.09-0.24c-0.1-0.26-0.19-0.52-0.28-0.78c-0.04-0.11-0.08-0.22-0.12-0.34        c-0.1-0.28-0.19-0.56-0.28-0.84l-0.06-0.19c-0.11-0.33-0.21-0.67-0.31-1.01l-0.09-0.32c-0.07-0.26-0.15-0.52-0.22-0.78        l-0.08-0.3c-0.09-0.34-0.18-0.68-0.26-1.03l-0.06-0.24c-0.07-0.28-0.13-0.56-0.19-0.84l-0.07-0.33        c-0.07-0.31-0.13-0.62-0.19-0.94l-0.03-0.14c-0.07-0.35-0.13-0.71-0.19-1.06l-0.05-0.31c-0.04-0.28-0.09-0.56-0.13-0.84        l-0.04-0.28c-0.05-0.36-0.09-0.72-0.14-1.08l-0.02-0.23c-0.03-0.3-0.06-0.59-0.09-0.89l-0.03-0.32        c-0.03-0.34-0.06-0.68-0.08-1.02l-0.01-0.09c-0.02-0.37-0.04-0.74-0.06-1.11l-0.01-0.31c-0.01-0.29-0.02-0.59-0.02-0.88        l0-0.27c0-0.37,0-0.74,0-1.11l0-0.23c0-0.31,0.01-0.61,0.02-0.92l0.01-0.31c0.01-0.37,0.03-0.73,0.05-1.1l0-0.04        c0.02-0.38,0.05-0.76,0.08-1.14l0.03-0.31c0.03-0.3,0.06-0.61,0.09-0.91l0.03-0.25c0.04-0.38,0.09-0.76,0.14-1.13l0.03-0.24        c0.04-0.31,0.09-0.62,0.14-0.93l0.05-0.31c0.06-0.38,0.13-0.76,0.2-1.15c0.08-0.42,0.16-0.84,0.25-1.25        c0.02-0.08,0.04-0.16,0.06-0.24l0.05-0.21c0.06-0.26,0.12-0.53,0.18-0.79c0.03-0.1,0.05-0.21,0.08-0.31l0.07-0.26        c0.06-0.22,0.11-0.44,0.17-0.66c0.03-0.12,0.06-0.23,0.1-0.34l0.08-0.29c0.05-0.19,0.11-0.39,0.16-0.58        c0.04-0.13,0.08-0.25,0.12-0.38l0.07-0.22c0.06-0.2,0.12-0.4,0.18-0.59c0.04-0.13,0.09-0.27,0.13-0.4l0.07-0.21        c0.06-0.19,0.13-0.38,0.19-0.57c0.05-0.14,0.1-0.28,0.15-0.42l0.06-0.16c0.07-0.2,0.14-0.39,0.22-0.59        c0.06-0.15,0.12-0.3,0.18-0.45l0.03-0.08c0.08-0.21,0.16-0.41,0.25-0.62c0.07-0.16,0.13-0.32,0.2-0.49l0.02-0.04        c0.08-0.2,0.17-0.4,0.26-0.61c0.08-0.18,0.15-0.35,0.23-0.52c0.09-0.2,0.18-0.4,0.27-0.6c0.08-0.17,0.16-0.35,0.24-0.52        c0.09-0.2,0.19-0.39,0.28-0.59c0.08-0.17,0.17-0.34,0.26-0.51c0.1-0.19,0.2-0.38,0.3-0.58c0.09-0.17,0.18-0.34,0.27-0.5        c0.1-0.19,0.21-0.38,0.31-0.57c0.09-0.17,0.19-0.33,0.28-0.5c0.11-0.19,0.21-0.37,0.32-0.56c0.1-0.16,0.19-0.33,0.29-0.49        c0.11-0.18,0.22-0.36,0.34-0.55c0.1-0.16,0.2-0.32,0.3-0.48c0.12-0.18,0.23-0.36,0.35-0.54c0.1-0.16,0.21-0.32,0.31-0.47        c0.12-0.18,0.24-0.35,0.36-0.53l0.04-0.06c0.09-0.13,0.19-0.27,0.28-0.4c0.12-0.17,0.24-0.33,0.36-0.49l0.08-0.1        c0.09-0.12,0.18-0.25,0.27-0.37c0.12-0.16,0.23-0.31,0.35-0.46l0.13-0.17c0.08-0.11,0.17-0.22,0.25-0.32        c0.12-0.15,0.24-0.3,0.36-0.45l0.14-0.17c0.08-0.1,0.17-0.21,0.25-0.31c0.12-0.14,0.24-0.28,0.35-0.42l0.17-0.2        c0.08-0.1,0.16-0.19,0.24-0.29c0.13-0.15,0.26-0.3,0.39-0.44l0.16-0.18c0.08-0.09,0.16-0.18,0.24-0.27        c0.13-0.14,0.26-0.28,0.39-0.42l0.2-0.22c0.07-0.08,0.14-0.16,0.22-0.23c0.17-0.18,0.34-0.35,0.51-0.53l0.14-0.15        c0.06-0.06,0.12-0.12,0.17-0.18c0.28-0.28,0.56-0.56,0.85-0.83c0.04-0.04,0.09-0.08,0.13-0.12l0.08-0.07        c0.22-0.21,0.44-0.41,0.66-0.62c0.07-0.07,0.15-0.14,0.23-0.2l0.22-0.2c0.15-0.13,0.29-0.26,0.44-0.39        c0.09-0.08,0.17-0.15,0.26-0.23l0.22-0.19c0.14-0.12,0.28-0.24,0.42-0.35c0.1-0.08,0.2-0.16,0.29-0.24l0.22-0.18        c0.13-0.11,0.27-0.22,0.41-0.33c0.1-0.08,0.21-0.16,0.31-0.24l0.21-0.16c0.14-0.11,0.28-0.22,0.42-0.33        c0.12-0.09,0.23-0.17,0.35-0.26l0.15-0.11c0.15-0.11,0.3-0.22,0.45-0.33c0.12-0.09,0.24-0.17,0.36-0.26l0.15-0.11        c0.15-0.11,0.3-0.21,0.46-0.32c0.14-0.09,0.27-0.18,0.41-0.28l0.06-0.04c0.18-0.12,0.35-0.23,0.52-0.34        c0.15-0.1,0.3-0.19,0.45-0.29l0.03-0.02c0.17-0.11,0.35-0.22,0.52-0.33c0.16-0.1,0.33-0.2,0.49-0.3        c0.18-0.11,0.35-0.21,0.53-0.32c0.16-0.1,0.33-0.19,0.5-0.29c0.18-0.1,0.36-0.2,0.53-0.3c0.17-0.09,0.34-0.18,0.5-0.28        c0.18-0.1,0.36-0.19,0.54-0.29c0.17-0.09,0.34-0.18,0.51-0.26c0.18-0.09,0.36-0.18,0.55-0.28c0.17-0.09,0.34-0.17,0.52-0.25        c0.18-0.09,0.37-0.18,0.55-0.26c0.17-0.08,0.35-0.16,0.52-0.24c0.19-0.08,0.37-0.17,0.56-0.25c0.18-0.08,0.35-0.15,0.53-0.23        c0.19-0.08,0.38-0.16,0.57-0.24l0.03-0.01c0.17-0.07,0.34-0.14,0.51-0.21c0.19-0.08,0.38-0.15,0.57-0.22l0.04-0.02        c0.17-0.06,0.33-0.13,0.5-0.19c0.19-0.07,0.38-0.14,0.57-0.2l0.09-0.03c0.15-0.06,0.31-0.11,0.46-0.16        c0.17-0.06,0.34-0.11,0.5-0.17l0.2-0.07c0.14-0.05,0.29-0.1,0.43-0.14c0.16-0.05,0.33-0.1,0.5-0.15l0.24-0.07        c0.14-0.04,0.27-0.08,0.41-0.12c0.16-0.05,0.33-0.09,0.49-0.14l0.27-0.08c0.13-0.04,0.26-0.07,0.39-0.11        c0.16-0.04,0.31-0.08,0.47-0.12l0.32-0.08c0.12-0.03,0.25-0.06,0.37-0.09c0.16-0.04,0.33-0.08,0.49-0.11l0.33-0.08        c0.12-0.03,0.23-0.05,0.35-0.08c0.19-0.04,0.39-0.08,0.58-0.12l0.31-0.06c0.1-0.02,0.19-0.04,0.29-0.06        c0.39-0.07,0.78-0.14,1.18-0.21c0.1-0.02,0.21-0.03,0.31-0.05l0.31-0.05c0.19-0.03,0.38-0.06,0.57-0.09        c0.12-0.02,0.25-0.03,0.37-0.05l0.33-0.04c0.17-0.02,0.34-0.04,0.51-0.06c0.13-0.02,0.27-0.03,0.4-0.04l0.33-0.03        c0.16-0.02,0.32-0.03,0.48-0.05c0.14-0.01,0.28-0.02,0.42-0.03l0.31-0.02c0.16-0.01,0.33-0.03,0.49-0.04        c0.15-0.01,0.3-0.02,0.46-0.03l0.25-0.01c0.17-0.01,0.35-0.02,0.52-0.03c0.16-0.01,0.31-0.01,0.47-0.02l0.2-0.01        c0.19-0.01,0.37-0.01,0.56-0.01c0.17,0,0.35,0,0.52,0l0.14,0c0.19,0,0.38,0,0.57,0c0.19,0,0.37,0.01,0.56,0.01l0.05,0        c0.21,0,0.42,0.01,0.63,0.02c0.2,0.01,0.41,0.02,0.61,0.02c0.21,0.01,0.42,0.02,0.63,0.03c0.21,0.01,0.41,0.03,0.62,0.04        c0.21,0.01,0.42,0.03,0.63,0.05c0.21,0.02,0.41,0.04,0.62,0.06c0.21,0.02,0.42,0.04,0.63,0.06c0.21,0.02,0.41,0.05,0.62,0.07        l0.13,0.01c0.07,0.01,0.13,0.01,0.2,0.02c0.06,0.01,0.11,0.02,0.17,0.02l0.1,0.01c0.27,0.04,0.53,0.07,0.8,0.11        c0.19,0.03,0.38,0.06,0.56,0.09c0.26,0.04,0.52,0.08,0.77,0.13l0.09,0.02c0.16,0.03,0.32,0.06,0.48,0.09l0.2,0.04        c0.14,0.03,0.27,0.05,0.41,0.08l0.34,0.07c0.12,0.02,0.24,0.05,0.36,0.07c0.35,0.07,0.7,0.15,1.04,0.24l0.23,0.05        c24.85,5.97,41.28,29.61,38.22,54.98l-0.03,0.24c-0.04,0.34-0.09,0.68-0.14,1.02c-0.02,0.15-0.05,0.3-0.07,0.46        c-0.04,0.28-0.09,0.55-0.13,0.82c-0.03,0.19-0.07,0.38-0.1,0.57l-0.02,0.13c-0.01,0.07-0.02,0.13-0.04,0.2        c-0.02,0.09-0.04,0.18-0.05,0.26l-0.03,0.16c-0.04,0.2-0.08,0.39-0.12,0.59c-0.05,0.26-0.11,0.51-0.17,0.77l-0.02,0.1        c-0.03,0.15-0.07,0.3-0.1,0.44c-0.07,0.29-0.14,0.57-0.21,0.86l-0.03,0.14c-0.02,0.07-0.04,0.15-0.06,0.22l-0.11,0.41        c-0.09,0.32-0.18,0.64-0.27,0.96l-0.04,0.14c-0.1,0.35-0.21,0.69-0.32,1.04l-0.09,0.28c-0.11,0.34-0.22,0.67-0.34,1.01        l-0.08,0.22c-0.1,0.29-0.21,0.59-0.32,0.88l-0.09,0.23c-0.13,0.33-0.26,0.65-0.39,0.98l-0.11,0.27        c-0.13,0.32-0.27,0.65-0.41,0.97l-0.06,0.13c-0.13,0.3-0.27,0.59-0.41,0.89l-0.12,0.26c-0.15,0.31-0.3,0.62-0.45,0.93        l-0.12,0.24c-0.14,0.27-0.28,0.54-0.42,0.81l-0.1,0.18c-0.16,0.31-0.33,0.61-0.5,0.91l-0.15,0.26        c-0.17,0.3-0.34,0.59-0.52,0.89l-0.11,0.19c-0.15,0.25-0.31,0.51-0.47,0.76l-0.15,0.24c-0.18,0.28-0.36,0.56-0.55,0.84        l-0.17,0.25c-0.17,0.25-0.34,0.51-0.52,0.76l-0.12,0.17c-0.19,0.26-0.38,0.53-0.57,0.79l-0.19,0.25        c-0.2,0.27-0.4,0.53-0.6,0.79l-0.17,0.22c-0.17,0.22-0.35,0.44-0.52,0.66l-0.17,0.21c-0.21,0.25-0.42,0.5-0.63,0.75        l-0.21,0.25c-0.21,0.25-0.43,0.49-0.64,0.73l-0.16,0.17c-0.12,0.13-0.24,0.27-0.36,0.4l-0.37,0.4        c-3.96,4.21-7.35,6.96-10.34,9.39c-6.03,4.89-10.02,8.13-13.11,19.33C265.61,464.71,263.5,466.25,261.19,466.26z         M253.21,351.62c-0.12,0-0.23,0-0.35,0l-0.14,0c-0.16,0-0.32,0-0.48,0c-0.17,0-0.35,0.01-0.52,0.01l-0.2,0.01        c-0.14,0-0.29,0.01-0.43,0.01c-0.16,0.01-0.32,0.02-0.48,0.02l-0.25,0.01c-0.14,0.01-0.28,0.01-0.42,0.02        c-0.15,0.01-0.3,0.02-0.45,0.03l-0.32,0.02c-0.13,0.01-0.25,0.02-0.38,0.03c-0.15,0.01-0.29,0.03-0.44,0.04l-0.34,0.03        c-0.12,0.01-0.24,0.02-0.36,0.04c-0.15,0.02-0.31,0.04-0.46,0.06l-0.34,0.04c-0.11,0.01-0.22,0.03-0.33,0.04        c-0.18,0.02-0.35,0.05-0.53,0.08l-0.33,0.05c-0.09,0.01-0.18,0.03-0.27,0.04c-0.37,0.06-0.74,0.13-1.11,0.2        c-0.08,0.02-0.16,0.03-0.24,0.05l-0.33,0.07c-0.18,0.04-0.36,0.07-0.54,0.11c-0.1,0.02-0.2,0.05-0.3,0.07l-0.35,0.08        c-0.15,0.03-0.3,0.07-0.45,0.1c-0.11,0.03-0.22,0.05-0.33,0.08l-0.33,0.08c-0.14,0.04-0.29,0.07-0.43,0.11        c-0.12,0.03-0.23,0.06-0.35,0.1l-0.28,0.08c-0.15,0.04-0.3,0.08-0.45,0.13c-0.12,0.04-0.25,0.07-0.37,0.11l-0.25,0.08        c-0.15,0.05-0.31,0.09-0.46,0.14c-0.13,0.04-0.27,0.09-0.4,0.13l-0.2,0.07c-0.16,0.05-0.31,0.1-0.47,0.16        c-0.14,0.05-0.29,0.1-0.43,0.15l-0.08,0.03c-0.19,0.07-0.37,0.13-0.55,0.2c-0.16,0.06-0.31,0.12-0.46,0.18l-0.04,0.02        c-0.18,0.07-0.36,0.14-0.54,0.21c-0.16,0.06-0.32,0.13-0.48,0.2l-0.02,0.01c-0.18,0.07-0.36,0.15-0.53,0.22        c-0.17,0.07-0.33,0.14-0.5,0.22c-0.18,0.08-0.35,0.16-0.53,0.23c-0.16,0.07-0.33,0.15-0.49,0.23        c-0.17,0.08-0.35,0.16-0.52,0.25c-0.16,0.08-0.33,0.16-0.49,0.24c-0.17,0.09-0.34,0.17-0.52,0.26        c-0.16,0.08-0.32,0.17-0.48,0.25c-0.17,0.09-0.34,0.18-0.51,0.27c-0.16,0.09-0.32,0.17-0.48,0.26        c-0.17,0.09-0.34,0.19-0.5,0.28c-0.16,0.09-0.31,0.18-0.47,0.27c-0.17,0.1-0.33,0.2-0.5,0.3c-0.15,0.09-0.31,0.19-0.46,0.28        c-0.16,0.1-0.33,0.21-0.49,0.31l-0.03,0.02c-0.14,0.09-0.28,0.18-0.42,0.27c-0.16,0.1-0.32,0.21-0.47,0.31l-0.07,0.05        c-0.13,0.08-0.25,0.17-0.38,0.26c-0.14,0.1-0.29,0.2-0.43,0.3l-0.15,0.11c-0.11,0.08-0.23,0.16-0.34,0.24        c-0.14,0.1-0.28,0.21-0.42,0.31l-0.16,0.12c-0.11,0.08-0.21,0.16-0.32,0.24c-0.13,0.1-0.26,0.2-0.39,0.3l-0.21,0.16        c-0.09,0.07-0.19,0.14-0.28,0.22c-0.13,0.1-0.25,0.2-0.37,0.3l-0.23,0.19c-0.09,0.07-0.18,0.14-0.26,0.22        c-0.13,0.11-0.26,0.22-0.38,0.33l-0.23,0.2c-0.08,0.07-0.15,0.13-0.23,0.2c-0.14,0.12-0.27,0.24-0.41,0.36l-0.23,0.21        c-0.06,0.06-0.13,0.11-0.19,0.17c-0.21,0.19-0.41,0.39-0.62,0.58l-0.2,0.18c-0.27,0.26-0.53,0.52-0.8,0.78        c-0.05,0.05-0.1,0.1-0.14,0.15l-0.16,0.16c-0.16,0.16-0.32,0.33-0.48,0.49c-0.06,0.07-0.12,0.13-0.19,0.2l-0.22,0.23        c-0.12,0.13-0.24,0.26-0.36,0.39c-0.07,0.08-0.14,0.16-0.21,0.24l-0.17,0.19c-0.12,0.14-0.24,0.27-0.36,0.41        c-0.07,0.08-0.14,0.17-0.22,0.26l-0.18,0.21c-0.11,0.13-0.22,0.26-0.33,0.39c-0.08,0.09-0.15,0.19-0.23,0.28l-0.14,0.17        c-0.11,0.14-0.23,0.28-0.34,0.42c-0.08,0.1-0.15,0.2-0.23,0.3l-0.13,0.17c-0.11,0.14-0.22,0.29-0.33,0.43        c-0.08,0.11-0.17,0.23-0.25,0.35l-0.08,0.11c-0.11,0.15-0.22,0.31-0.33,0.46c-0.09,0.12-0.17,0.25-0.26,0.37l-0.04,0.06        c-0.11,0.16-0.23,0.33-0.34,0.5c-0.1,0.15-0.2,0.3-0.29,0.44c-0.11,0.17-0.22,0.34-0.33,0.51c-0.1,0.15-0.19,0.3-0.28,0.45        c-0.11,0.17-0.21,0.34-0.32,0.51c-0.09,0.15-0.18,0.31-0.27,0.46c-0.1,0.17-0.2,0.35-0.3,0.52c-0.09,0.15-0.18,0.31-0.26,0.47        c-0.1,0.18-0.2,0.35-0.29,0.53c-0.08,0.16-0.17,0.32-0.25,0.47c-0.09,0.18-0.19,0.36-0.28,0.54        c-0.08,0.16-0.16,0.32-0.24,0.48c-0.09,0.18-0.18,0.37-0.27,0.55c-0.08,0.16-0.15,0.32-0.23,0.49        c-0.09,0.19-0.17,0.37-0.26,0.56c-0.07,0.16-0.15,0.33-0.22,0.49c-0.08,0.19-0.16,0.38-0.24,0.57l-0.02,0.04        c-0.06,0.15-0.13,0.3-0.19,0.45c-0.08,0.19-0.15,0.39-0.23,0.58l-0.03,0.08c-0.05,0.14-0.11,0.28-0.16,0.42        c-0.07,0.18-0.14,0.37-0.2,0.55l-0.06,0.17c-0.05,0.13-0.09,0.25-0.14,0.38c-0.06,0.18-0.12,0.36-0.18,0.53l-0.07,0.21        c-0.04,0.12-0.08,0.24-0.12,0.36c-0.06,0.18-0.12,0.37-0.17,0.55l-0.07,0.23c-0.04,0.11-0.07,0.23-0.1,0.34        c-0.05,0.18-0.1,0.36-0.15,0.53l-0.08,0.3c-0.03,0.1-0.06,0.2-0.09,0.3c-0.05,0.2-0.11,0.41-0.16,0.61l-0.07,0.27        c-0.02,0.09-0.05,0.18-0.07,0.27c-0.06,0.24-0.11,0.49-0.17,0.74l-0.05,0.23c-0.02,0.07-0.03,0.13-0.05,0.2        c-0.08,0.39-0.16,0.78-0.24,1.18c-0.07,0.36-0.13,0.72-0.19,1.08l-0.05,0.29c-0.05,0.29-0.09,0.58-0.13,0.87l-0.03,0.23        c-0.05,0.36-0.09,0.71-0.13,1.07l-0.03,0.24c-0.03,0.29-0.06,0.57-0.09,0.86l-0.03,0.29c-0.03,0.36-0.06,0.71-0.08,1.07        l0,0.04c-0.02,0.34-0.04,0.69-0.05,1.03l-0.01,0.29c-0.01,0.29-0.02,0.58-0.02,0.86l0,0.22c0,0.35,0,0.7,0,1.05l0,0.25        c0,0.28,0.01,0.56,0.02,0.83l0.01,0.29c0.01,0.35,0.03,0.7,0.05,1.04l0.01,0.08c0.02,0.33,0.05,0.65,0.07,0.97l0.03,0.3        c0.03,0.28,0.05,0.56,0.08,0.84l0.02,0.22c0.04,0.34,0.08,0.68,0.13,1.01l0.04,0.27c0.04,0.26,0.08,0.53,0.12,0.79l0.05,0.3        c0.06,0.33,0.11,0.67,0.18,1l0.03,0.13c0.06,0.3,0.12,0.59,0.18,0.88l0.07,0.31c0.06,0.26,0.12,0.53,0.18,0.79l0.05,0.23        c0.08,0.32,0.16,0.65,0.25,0.97l0.08,0.28c0.07,0.24,0.13,0.49,0.2,0.73l0.09,0.3c0.09,0.32,0.19,0.63,0.29,0.95l0.06,0.18        c0.09,0.26,0.17,0.53,0.26,0.79c0.04,0.11,0.07,0.21,0.11,0.31c0.09,0.25,0.18,0.49,0.27,0.74l0.08,0.23        c0.1,0.27,0.2,0.54,0.31,0.8v0l0.11,0.28c2.06,5.16,4.11,8.83,5.92,12.08c3.9,6.99,6.72,12.05,5.37,24.62        c-0.12,1.16,0.67,2.24,1.82,2.46l0.1,0.02l0.1,0.03c12.4,4.18,25.25,6.62,38.18,7.27l0.1,0.01l0.1,0.02        c1.15,0.22,2.28-0.49,2.59-1.61c3.34-12.12,7.86-15.79,14.1-20.85c2.92-2.37,6.22-5.05,10.05-9.12l0.35-0.38        c0.12-0.12,0.23-0.25,0.34-0.37l0.15-0.16c0.21-0.23,0.41-0.46,0.61-0.69l0.2-0.23c0.2-0.23,0.4-0.47,0.59-0.71l0.16-0.2        c0.17-0.2,0.33-0.41,0.49-0.62l0.16-0.21c0.19-0.25,0.38-0.49,0.56-0.74l0.18-0.24c0.18-0.24,0.36-0.49,0.53-0.74l0.11-0.16        c0.16-0.24,0.33-0.47,0.49-0.71l0.16-0.24c0.17-0.26,0.35-0.53,0.52-0.79l0.14-0.22c0.15-0.24,0.3-0.48,0.44-0.72l0.11-0.18        c0.16-0.27,0.32-0.55,0.48-0.83l0.14-0.25c0.16-0.28,0.32-0.57,0.47-0.85l0.09-0.17c0.13-0.25,0.27-0.51,0.39-0.76l0.11-0.22        c0.15-0.29,0.29-0.58,0.43-0.88l0.11-0.24c0.13-0.28,0.26-0.56,0.38-0.84l0.05-0.12c0.13-0.3,0.26-0.61,0.39-0.91l0.1-0.25        c0.13-0.31,0.25-0.61,0.37-0.92l0.08-0.21c0.1-0.27,0.21-0.55,0.3-0.83l0.07-0.2c0.11-0.31,0.22-0.63,0.32-0.95l0.08-0.26        c0.1-0.32,0.21-0.65,0.3-0.98l0.04-0.13c0.09-0.3,0.17-0.6,0.26-0.9l0.11-0.39c0.01-0.06,0.03-0.11,0.04-0.16l0.04-0.17        c0.07-0.27,0.14-0.54,0.2-0.81c0.03-0.14,0.06-0.27,0.09-0.41l0.02-0.1c0.06-0.24,0.11-0.48,0.16-0.73        c0.04-0.19,0.08-0.37,0.11-0.55l0.04-0.18c0.01-0.07,0.03-0.14,0.04-0.21c0.01-0.05,0.02-0.1,0.03-0.15l0.03-0.16        c0.03-0.18,0.06-0.35,0.09-0.53c0.04-0.26,0.09-0.52,0.13-0.78c0.02-0.14,0.04-0.29,0.07-0.43c0.05-0.32,0.09-0.64,0.13-0.96        l0.03-0.23c2.88-23.88-12.58-46.12-35.97-51.74l-0.22-0.05c-0.33-0.08-0.65-0.15-0.98-0.22c-0.11-0.02-0.21-0.04-0.32-0.07        l-0.37-0.08c-0.12-0.02-0.24-0.05-0.36-0.07l-0.19-0.03c-0.15-0.03-0.3-0.05-0.45-0.08l-0.09-0.02        c-0.24-0.04-0.49-0.08-0.73-0.12c-0.18-0.03-0.35-0.05-0.53-0.08c-0.25-0.04-0.5-0.07-0.76-0.11l-0.56-0.07        c-0.19-0.02-0.39-0.05-0.59-0.07c-0.2-0.02-0.39-0.04-0.59-0.06c-0.19-0.02-0.39-0.04-0.58-0.05        c-0.2-0.02-0.39-0.03-0.59-0.04c-0.19-0.01-0.39-0.03-0.58-0.04c-0.2-0.01-0.39-0.02-0.59-0.03        c-0.19-0.01-0.39-0.02-0.58-0.02c-0.2-0.01-0.39-0.01-0.59-0.01l-0.05,0c-0.17,0-0.35-0.01-0.52-0.01        C253.33,351.62,253.27,351.62,253.21,351.62z"></path><path fill="#9bd" d="M249.21,463.89l-2.92-0.56c0.02-0.12,2.29-11.89,5.58-24.2c1.94-7.25,3.85-13.28,5.69-17.91        c0.09-0.23,0.18-0.46,0.28-0.69c-3.32-0.25-7.39-1.01-12.38-2.54c-1.29-0.4-2.5-0.81-3.61-1.22c0.07,2.05-0.02,4.29-0.29,6.7        c-3.48,31.63-4.79,37.87-4.84,38.12l-2.91-0.63c0.01-0.06,1.34-6.5,4.79-37.82c0.33-2.96,0.36-5.49,0.18-7.64        c-7.62-3.48-9.89-7.34-9.22-10.14c0.47-1.96,2.41-3.11,4.62-2.72c2.41,0.42,4.58,2.45,5.95,5.58        c0.67,1.53,1.14,3.27,1.43,5.23c1.39,0.57,2.98,1.14,4.77,1.69c5.17,1.59,9.4,2.33,12.77,2.48c1.85-3.98,3.64-6.5,5.41-7.65        c2.99-1.94,5.46-1.29,6.78-0.04c1.58,1.5,1.8,3.93,0.57,6.04c-0.78,1.33-3.41,4.45-10.84,4.64        c-1.76,4.13-3.86,10.24-6.28,19.28C251.47,452.1,249.23,463.77,249.21,463.89z M268.21,411.72c-0.6,0-1.32,0.25-2.08,0.75        c-0.82,0.54-2.07,1.87-3.71,5.11c3.77-0.33,5.99-1.59,6.87-3.1c0.61-1.03,0.41-1.94-0.06-2.39        C268.98,411.84,268.62,411.72,268.21,411.72z M233.33,405.55c-0.4,0-0.79,0.13-0.88,0.52c-0.25,1.02,1.1,3.35,5.77,5.85        c-1-4.11-2.93-6.05-4.55-6.33C233.56,405.56,233.45,405.55,233.33,405.55z"></path><rect width="2.97" height="41.22" x="238.49" y="447.33" fill="#9bd" transform="rotate(-72.097 239.962 467.922)"></rect><rect width="2.97" height="41.22" x="237.7" y="451.46" fill="#9bd" transform="rotate(-72.097 239.175 472.06)"></rect><rect width="2.97" height="41.22" x="236.91" y="455.6" fill="#9bd" transform="rotate(-72.097 238.387 476.198)"></rect><rect width="2.97" height="39.29" x="235.2" y="460.41" fill="#9bd" transform="rotate(-72.097 236.676 480.038)"></rect><g><rect width="2.97" height="15.77" x="315.75" y="403.38" fill="#9bd" transform="rotate(-79.223 317.204 411.241)"></rect></g><g><rect width="15.77" height="2.97" x="306.87" y="376.07" fill="#9bd" transform="rotate(-19.219 314.745 377.545)"></rect></g><g><rect width="15.77" height="2.97" x="287.86" y="348.12" fill="#9bd" transform="rotate(-49.222 295.76 349.625)"></rect></g><g><rect width="15.77" height="2.97" x="257.42" y="333.42" fill="#9bd" transform="rotate(-79.216 265.318 334.918)"></rect></g><g><rect width="2.97" height="15.77" x="230.11" y="329.51" fill="#9bd" transform="rotate(-19.219 231.585 337.373)"></rect></g><g><rect width="2.97" height="15.77" x="202.16" y="348.52" fill="#9bd" transform="rotate(-49.217 203.667 356.404)"></rect></g><g><rect width="2.97" height="15.77" x="187.46" y="378.95" fill="#9bd" transform="rotate(-79.216 188.975 386.858)"></rect></g><g><path fill="#9bd" d="M595.06 445.81l-49.95-9.86-24.07-83.91 71 8.95L595.06 445.81zM547.47 433.39l44.49 8.78-2.79-78.54-64.02-8.07L547.47 433.39zM601.13 445.57l-3.71-84.78 70.07-14.54-17.35 85.55L601.13 445.57zM600.5 363.19l3.43 78.51 43.65-12.27 16.1-79.35L600.5 363.19z"></path><path fill="#9bd" d="M592.41,445.52l-3.35-84.63l11.33-0.45l3.35,84.63L592.41,445.52z M592.15,363.74l3.12,78.69l5.39-0.21      l-3.12-78.69L592.15,363.74z"></path><path fill="#9bd" d="M593.3,362.21l-0.24-6.19l0.64-0.47c0.21-0.16,5.34-3.84,15.27-7.26c9.1-3.13,24.15-6.6,44.17-5.37      l0.4,0.02l6.28,4.23l-1.66,2.46l-5.61-3.78c-19.26-1.12-33.72,2.2-42.48,5.19c-7.61,2.6-12.35,5.41-13.99,6.47l0.18,4.56      L593.3,362.21z"></path><path fill="#9bd" d="M593.3,362.21l-0.18-4.56c-1.71-0.92-6.66-3.35-14.46-5.34c-8.97-2.29-23.65-4.46-42.76-1.82l-5.29,4.21      l-1.85-2.33l5.93-4.72l0.4-0.06c19.86-2.8,35.14-0.53,44.46,1.86c10.17,2.62,15.57,5.89,15.8,6.02l0.68,0.41l0.24,6.19      L593.3,362.21z"></path><path fill="#9bd" d="M596,357.17l-2.86-0.8c0.16-0.58,4.24-14.27,31.43-17.32c25.57-2.87,32.9-7.6,32.97-7.64l4.31-2.88      l-2.12,4.72l-5.32,11.78l-2.71-1.22l3.67-8.12c-4.55,1.76-13.69,4.43-30.46,6.31c-13.13,1.48-20.3,5.55-24.01,8.71      C596.94,354.07,596.01,357.14,596,357.17z"></path><rect width="8.48" height="2.97" x="590.84" y="369.53" fill="#9bd" transform="rotate(-2.292 594.63 371.07)"></rect><rect width="8.48" height="2.97" x="591.11" y="376.46" fill="#9bd" transform="rotate(-2.292 595.63 378.524)"></rect><rect width="8.48" height="2.97" x="593.22" y="432.17" fill="#9bd" transform="rotate(-1.868 597.072 433.382)"></rect><rect width="8.48" height="2.97" x="592.99" y="425.23" fill="#9bd" transform="rotate(-1.868 596.814 426.43)"></rect><path fill="#9bd" d="M597.83 358.92c.87-.66 1.81-1.22 2.75-1.77.95-.54 1.92-1.03 2.91-1.5 1.98-.93 4.01-1.73 6.07-2.43l1.56-.5c.52-.17 1.04-.31 1.57-.46 1.05-.29 2.1-.57 3.17-.81 1.06-.26 2.13-.44 3.2-.65 1.08-.17 2.15-.33 3.24-.44-1.03.36-2.08.65-3.11.97l-1.55.48c-.52.16-1.04.3-1.55.47-.51.17-1.03.33-1.55.48-.52.15-1.03.33-1.54.5-1.03.32-2.05.67-3.07 1.01-2.04.7-4.07 1.41-6.09 2.18C601.82 357.24 599.81 358.03 597.83 358.92zM616.04 355c2.67-1.3 5.48-2.3 8.31-3.17 2.84-.87 5.72-1.59 8.63-2.18.73-.14 1.46-.27 2.19-.41l1.1-.19 1.1-.17 2.2-.32c.74-.09 1.47-.17 2.21-.25 1.47-.18 2.96-.26 4.43-.36.37-.02.74-.04 1.11-.05l1.11-.03c.74-.02 1.48-.03 2.22-.03-1.46.25-2.93.43-4.39.66l-2.19.33c-.36.06-.73.1-1.09.16l-1.09.18c-.73.12-1.45.24-2.18.35l-2.17.39-1.09.19-1.08.21c-.72.14-1.45.27-2.17.42-2.89.58-5.76 1.22-8.62 1.92C621.73 353.37 618.88 354.12 616.04 355zM593.68 358.39c-2.27-.54-4.51-1.13-6.76-1.72l-6.71-1.79-6.72-1.77-6.75-1.7c2.33.12 4.65.44 6.94.86 2.29.43 4.57.94 6.82 1.54 2.25.6 4.48 1.28 6.68 2.04C589.38 356.59 591.56 357.41 593.68 358.39zM581.52 358.11c-3.22-.51-6.43-1.06-9.63-1.62l-4.8-.84-2.4-.42-2.4-.41c-1.6-.28-3.2-.56-4.81-.81-.8-.13-1.6-.28-2.4-.4-.8-.12-1.6-.25-2.41-.39-3.21-.5-6.42-.97-9.66-1.41 3.26-.02 6.53.21 9.77.55 1.62.17 3.24.38 4.86.61.81.11 1.61.24 2.42.37l2.41.39c1.6.29 3.21.58 4.81.9.8.16 1.6.33 2.39.5.8.16 1.59.34 2.39.53C575.23 356.36 578.4 357.15 581.52 358.11z"></path></g><g><path fill="#9bd" d="M813.43,417.81c-2.57-14.41-16.39-24.04-30.79-21.46l-0.52-2.93c16.02-2.86,31.38,7.85,34.24,23.87       L813.43,417.81z"></path><path fill="#9bd" d="M804.49 420.23c-.85-4.77-3.51-8.92-7.48-11.69-3.97-2.77-8.79-3.83-13.56-2.98l-.52-2.93c5.55-.99 11.15.24 15.78 3.46 4.62 3.22 7.72 8.06 8.71 13.6L804.49 420.23zM795.56 422.65c-.46-2.56-1.88-4.78-4.01-6.27-2.13-1.49-4.71-2.05-7.27-1.6l-.52-2.93c3.34-.6 6.71.14 9.49 2.08 2.78 1.94 4.64 4.85 5.24 8.18L795.56 422.65z"></path><g><path fill="#9bd" d="M790.14,424.86c-1.17,1.67-3.47,2.08-5.14,0.92c-1.67-1.17-2.08-3.47-0.92-5.14      c1.17-1.67,3.47-2.08,5.14-0.92C790.89,420.89,791.3,423.19,790.14,424.86z"></path></g></g><g><path fill="#9bd" d="M266.45,722.34l-1.98-2.22c0.11-0.1,11.34-10.24,20.7-26.93c8.44-15.05,17.03-38.62,10.58-66.08      c-4.17,1.44-16.59,6.39-28.34,17.68c-13.19,12.68-28.24,36.2-25.01,76.32l-2.96,0.24c-1.47-18.23,0.6-34.7,6.15-48.96      c4.45-11.44,11.14-21.48,19.87-29.84c14.87-14.24,30.32-18.6,30.97-18.77l1.46-0.4l0.37,1.47c3.27,12.86,3.62,26,1.06,39.04      c-2.05,10.42-5.95,20.8-11.6,30.85C278.11,711.83,266.92,721.92,266.45,722.34z"></path><path fill="#9bd" d="M255.54,721.6l-2.88-0.74c0.03-0.13,3.38-13.02,9.36-29.57c5.52-15.3,14.49-36.97,25.85-53.3l2.44,1.7      C268.91,670.46,255.67,721.09,255.54,721.6z"></path><rect width="2.97" height="17.57" x="252.05" y="693.84" fill="#9bd" transform="rotate(-24.248 253.504 702.559)"></rect><rect width="18.93" height="2.97" x="260.62" y="691.21" fill="#9bd" transform="rotate(-26.45 270.11 692.737)"></rect><rect width="2.97" height="17.43" x="262.91" y="664.84" fill="#9bd" transform="rotate(-18.648 264.384 673.475)"></rect><rect width="17.11" height="2.97" x="273.12" y="659.55" fill="#9bd" transform="rotate(-29.865 281.736 661.075)"></rect><rect width="2.97" height="13.41" x="274.92" y="643.47" fill="#9bd" transform="rotate(-18.73 276.445 650.246)"></rect><rect width="2.97" height="50.92" x="194.21" y="681.5" fill="#9bd" transform="rotate(-55.917 195.707 706.997)"></rect><path fill="#9bd" d="M215.47,721.93c-0.08-0.15-8.16-15.35-13.85-38.52c-3.34-13.61-5.22-27.28-5.59-40.64      c-0.46-16.72,1.45-32.99,5.69-48.37l0.5-1.81l1.65,0.9c0.39,0.21,9.65,5.34,20.43,16.39c6.32,6.48,11.85,13.67,16.42,21.36      c5.71,9.61,9.94,20.04,12.57,30.98l-2.89,0.69c-5.78-24.09-18.5-40.96-28.15-50.88c-7.88-8.1-15.05-13-18.17-14.96      c-8.75,33.45-4.64,64.89,0.41,85.53c5.59,22.84,13.52,37.77,13.6,37.91L215.47,721.93z"></path><path fill="#9bd" d="M237.2,721.32c-0.01-0.14-0.87-14.29-4.75-34.95c-3.58-19.06-10.53-47.72-23.33-76.04l2.71-1.22      c12.93,28.61,19.95,57.54,23.56,76.77c3.91,20.84,4.78,35.13,4.78,35.28L237.2,721.32z"></path><rect width="2.97" height="13.98" x="211.83" y="618.21" fill="#9bd" transform="rotate(-49.421 213.35 625.236)"></rect><rect width="16.03" height="2.97" x="215.17" y="629.46" fill="#9bd" transform="rotate(-79.991 223.175 630.93)"></rect><rect width="2.97" height="18.05" x="216.87" y="639.9" fill="#9bd" transform="rotate(-60.824 218.369 648.956)"></rect><rect width="21.68" height="2.97" x="221.06" y="650.92" fill="#9bd" transform="rotate(-73.268 231.872 652.366)"></rect><rect width="2.97" height="21.23" x="221.3" y="662.34" fill="#9bd" transform="rotate(-63.115 222.772 672.952)"></rect><rect width="22.98" height="2.97" x="227.1" y="674.51" fill="#9bd" transform="rotate(-66.396 238.622 676.039)"></rect><rect width="2.97" height="20.86" x="226.12" y="689" fill="#9bd" transform="rotate(-62.518 227.595 699.388)"></rect><rect width="7.03" height="2.97" x="235.62" y="705.95" fill="#9bd" transform="rotate(-65.342 239.157 707.46)"></rect><path fill="#9bd" d="M193.45,722.6c-18.52-7.89-27.69-18.96-32.11-26.85c-4.84-8.63-5.24-15.35-5.26-15.64l-0.08-1.54l1.54-0.03      c17.95-0.32,30.95,5.09,38.69,9.68c8.43,5,12.57,10.05,12.74,10.27l-2.31,1.87l1.16-0.93l-1.15,0.94      c-0.04-0.05-4.05-4.92-12.07-9.65c-7.15-4.22-19.01-9.16-35.34-9.2c0.39,2.37,1.54,7.23,4.77,12.94      c4.21,7.44,12.94,17.89,30.6,25.42L193.45,722.6z"></path><rect width="2.97" height="13.67" x="181.71" y="687.72" fill="#9bd" transform="rotate(-27.295 183.18 694.51)"></rect><rect width="2.97" height="14.28" x="185.7" y="698.47" fill="#9bd" transform="rotate(-86.612 187.19 705.58)"></rect><rect width="2.97" height="12.94" x="198.6" y="698.99" fill="#9bd" transform="rotate(-21.061 200.125 705.485)"></rect><rect width="10.58" height="2.97" x="197.59" y="715.11" fill="#9bd" transform="rotate(-14.3 202.792 716.504)"></rect></g><g><rect width="18.98" height="2.97" x="778.33" y="691.26" fill="#9bd" transform="rotate(-46.812 787.88 692.77)"></rect><rect width="2.97" height="19.73" x="772.39" y="698.03" fill="#9bd" transform="rotate(-43.217 773.829 707.86)"></rect><rect width="12.04" height="2.97" x="781.69" y="717.53" fill="#9bd" transform="rotate(-40.718 787.728 719.04)"></rect><rect width="2.97" height="15.75" x="735.3" y="682.97" fill="#9bd" transform="rotate(-76.049 736.751 690.842)"></rect><rect width="16.71" height="2.97" x="742" y="692.62" fill="#9bd" transform="rotate(-82.38 750.296 694.082)"></rect><rect width="2.97" height="13.59" x="745.45" y="703.1" fill="#9bd" transform="rotate(-72.884 746.925 709.907)"></rect><rect width="8.95" height="2.97" x="753.05" y="713.24" fill="#9bd" transform="rotate(-73.053 757.497 714.708)"></rect><rect width="17.36" height="2.97" x="810.97" y="685.1" fill="#9bd" transform="rotate(-15.783 819.49 686.474)"></rect><path fill="#9bd" d="M759.81,723.35c-0.19-0.65-4.56-16.18-3.74-38.96c0.48-13.37,2.68-26.45,6.53-38.87       c4.82-15.53,12.24-30.06,22.07-43.18l1.19-1.59l1.19,1.59c0.31,0.42,7.74,10.49,12.85,30.52c2.99,11.71,4.56,24.42,4.65,37.77       c0.12,16.66-2.06,34.38-6.48,52.66l-2.89-0.7c9.87-40.84,6.44-70.94,1.83-89c-3.8-14.88-8.97-24.18-11.22-27.77       c-20.74,28.56-26.02,58.4-26.76,78.57c-0.82,22.34,3.58,37.99,3.62,38.15L759.81,723.35z"></path><rect width="89.56" height="2.97" x="737.52" y="676.72" fill="#9bd" transform="rotate(-87.404 782.25 678.189)"></rect><rect width="2.97" height="14.95" x="777.24" y="646.14" fill="#9bd" transform="rotate(-36.254 778.718 653.582)"></rect><rect width="17.41" height="2.97" x="780.03" y="662.78" fill="#9bd" transform="rotate(-50.051 788.685 664.276)"></rect><rect width="2.97" height="17.96" x="774.12" y="673.93" fill="#9bd" transform="rotate(-43.513 775.607 682.916)"></rect><path fill="#9bd" d="M746.7,724.11c-0.35-0.28-8.68-6.87-16.61-18.72c-4.66-6.96-8.2-14.3-10.51-21.8       c-2.9-9.4-3.88-19.08-2.92-28.78l0.16-1.6l1.58,0.29c0.26,0.05,6.46,1.19,14.58,5.29c7.48,3.78,18.04,10.89,25.9,23.33       l-2.51,1.59c-7.47-11.82-17.52-18.6-24.63-22.21c-5.39-2.73-9.96-4.11-12.26-4.7c-1.52,20.26,6.19,36.61,13.03,46.87       c7.66,11.48,15.95,18.05,16.03,18.11L746.7,724.11z"></path><path fill="#9bd" d="M756.21,723.41c-0.12-0.35-11.92-35.48-29.94-54.32l2.15-2.05c9.68,10.12,17.49,24.66,22.34,35.08       c5.24,11.25,8.24,20.27,8.27,20.36L756.21,723.41z"></path><rect width="2.97" height="10.82" x="727.65" y="669.29" fill="#9bd" transform="rotate(-71.675 729.106 674.682)"></rect><rect width="2.97" height="13.03" x="736.72" y="669.89" fill="#9bd" transform="rotate(-4.405 737.91 676.163)"></rect><path fill="#9bd" d="M814.3,724.23l-1.47-2.58c0.08-0.04,7.82-4.6,15.1-17.3c6.63-11.56,14.19-32.36,12.96-66.17       c-2.54,0.71-7.65,2.43-13.37,6.01c-7.44,4.66-17.48,13.52-23.04,29.3l-2.8-0.99c5.87-16.64,16.5-25.99,24.38-30.9       c8.56-5.33,15.67-6.7,15.97-6.76l1.68-0.31l0.08,1.71c0.71,15.76-0.38,30.17-3.23,42.84c-2.29,10.17-5.72,19.25-10.19,26.99       C822.69,719.35,814.64,724.04,814.3,724.23z"></path><path fill="#9bd" d="M804.56,723.11l-2.95-0.34c0.01-0.12,1.4-11.78,5.81-26.6c4.07-13.72,11.64-33.06,24.56-47.3l2.2,2       c-12.53,13.81-19.91,32.69-23.89,46.09C805.94,711.54,804.57,722.99,804.56,723.11z"></path><rect width="11.8" height="2.97" x="816.77" y="656.88" fill="#9bd" transform="rotate(-88.797 822.705 658.35)"></rect><rect width="14.91" height="2.97" x="818.52" y="667.15" fill="#9bd" transform="rotate(-18.024 825.887 668.587)"></rect><rect width="2.97" height="15" x="811.91" y="666.28" fill="#9bd" transform="rotate(-6.085 813.364 673.755)"></rect><rect width="2.97" height="14.43" x="805.01" y="682.51" fill="#9bd" transform="rotate(-19.044 806.615 689.794)"></rect><g><rect width="19.17" height="2.97" x="806.02" y="701.14" fill="#9bd" transform="rotate(-17.982 815.752 702.724)"></rect></g><g><rect width="2.97" height="8.85" x="800.69" y="706.49" fill="#9bd" transform="rotate(-30.424 802.13 710.887)"></rect></g></g><path fill="#576c89" d="M840.45,732.57H157.81l0,0c0-7.68,6.22-13.9,13.9-13.9h654.84C834.23,718.67,840.45,724.9,840.45,732.57    L840.45,732.57z"></path><g><path fill="#466eb6" d="M724.44,398.6h-12.32c17.7,0,32.06,14.35,32.06,32.07v216.39c0,17.7-14.35,32.07-32.06,32.07h12.32     c17.7,0,32.06-14.37,32.06-32.07V430.67C756.5,412.95,742.14,398.6,724.44,398.6z"></path><path fill="#86b1f2" d="M464.01,703.17c-4.33,0-7.86,3.54-7.86,7.86c0,2.15,0.87,4.12,2.3,5.54c1.42,1.42,3.39,2.31,5.56,2.31     h152.71c4.33,0,7.86-3.54,7.86-7.86c0-2.15-0.89-4.12-2.31-5.54c-1.42-1.42-3.38-2.31-5.54-2.31h-4.09h-10.46h-81.96H464.01z"></path><path fill="#466eb6" d="M629.65,703.17h-12.93c2.17,0,4.12,0.89,5.54,2.31c1.42,1.42,2.31,3.39,2.31,5.54     c0,4.32-3.52,7.86-7.86,7.86h12.93c2.17,0,4.12-0.89,5.54-2.31c1.42-1.42,2.31-3.39,2.31-5.54     C637.51,706.71,633.98,703.17,629.65,703.17z"></path><polygon fill="#355389" points="589.61 679.13 602.17 703.17 612.63 703.17 600.05 679.13"></polygon><polygon fill="#466eb6" points="507.65 679.13 520.21 703.17 602.17 703.17 589.61 679.13"></polygon><path fill="#86b1f2" d="M364.79,398.6h347.34c17.7,0,32.06,14.35,32.06,32.07v216.39c0,17.7-14.35,32.07-32.06,32.07H600.05h-10.44     h-81.96H364.79c-17.7,0-32.06-14.37-32.06-32.07V430.67C332.73,412.95,347.09,398.6,364.79,398.6z M364.8,642.48h347.32     c12.33,0,22.36-10.04,22.36-22.37V430.67c0-12.33-10.02-22.37-22.36-22.37H364.8c-12.33,0-22.37,10.04-22.37,22.37v189.44     C342.43,632.44,352.47,642.48,364.8,642.48z"></path><path fill="#efefef" d="M734.48,430.67V620.1c0,8.94-5.25,16.67-12.85,20.24c-2.89,1.37-6.11,2.14-9.51,2.14H364.8     c-12.33,0-22.38-10.04-22.38-22.38V430.67c0-11.1,8.14-20.35,18.76-22.08c1.18-0.19,2.38-0.29,3.61-0.29h347.32     c1.23,0,2.44,0.1,3.61,0.29C726.35,410.32,734.48,419.56,734.48,430.67z"></path><defs><path id="a" d="M734.48,430.67v189.44c0,8.94-5.25,16.67-12.85,20.24c-2.89,1.37-6.11,2.13-9.5,2.13H364.8       c-12.33,0-22.37-10.04-22.37-22.37V430.67c0-12.33,10.04-22.37,22.37-22.37h347.32C724.46,408.3,734.48,418.33,734.48,430.67z"></path></defs><clipPath id="b"><use overflow="visible" xlink:href="#a"></use></clipPath><g clip-path="url(#b)"><rect width="110.41" height="8.48" x="364.52" y="663.68" fill="#fec65e"></rect><polygon fill="#fe875e" points="420 652.16 365.08 663.68 474.93 663.68"></polygon><rect width="22.32" height="9.65" x="408.84" y="644.25" fill="#fec65e"></rect><rect width="22.32" height="9.65" x="408.85" y="624.93" fill="#fec65e"></rect><rect width="13.12" height="9.65" x="413.44" y="634.6" fill="#fe875e"></rect><path fill="#fae0b2" d="M399.55 607.95l-3.46-1.52c-1.03-.45-2.23.01-2.68 1.04l-6.03 13.7c-.45 1.03.01 2.23 1.04 2.68l3.46 1.52c1.03.45 2.23-.01 2.68-1.04l6.03-13.7C401.05 609.6 400.58 608.4 399.55 607.95zM455.29 481.3l-3.46-1.52c-1.03-.45-1.49-1.65-1.04-2.68l6.03-13.7c.45-1.03 1.65-1.49 2.68-1.04l3.46 1.52c1.03.45 1.49 1.65 1.04 2.68l-6.03 13.7C457.52 481.29 456.32 481.76 455.29 481.3z"></path><path fill="#fec65e" d="M418.26,626.43c-11.74,0-23.46-2.44-34.53-7.31c-1.32-0.58-1.92-2.12-1.34-3.44        c0.58-1.32,2.12-1.92,3.44-1.34c19.69,8.67,41.58,9.15,61.64,1.35c20.06-7.8,35.87-22.94,44.54-42.63        c17.89-40.66-0.63-88.29-41.28-106.18c-1.32-0.58-1.92-2.12-1.34-3.44c0.58-1.32,2.12-1.92,3.44-1.34        c43.29,19.05,63.01,69.78,43.96,113.07c-9.23,20.97-26.07,37.09-47.43,45.4C439.28,624.48,428.76,626.43,418.26,626.43z"></path><path fill="#466eb6" d="M362.3 581.44c.22 4.31 0 11.93 0 11.93l-.02.02c-14.28-13.75-23.16-33.04-23.16-54.41 0-2.07.08-4.13.25-6.15h.02c0 .44.1 3.48 2.89 6.15 3 2.87 4.3 3.94 6.45 5.13 2.16 1.19 8.61 5.06 8.61 5.06s1.31.42 4.96 5.16c3.65 4.74 7.1 6.47 7.96 9.05s2.58 4.94 2.58 4.94-6.45 8.83-7.74 9.69C363.81 578.85 362.09 577.14 362.3 581.44zM441.7 604.25c.83 4.46 2.78 3.99 3.04 3.9v.02c-9.24 4.02-19.44 6.26-30.15 6.26 0 0 2.58-3.73 4.67-8.03 2.07-4.31-.36-3.02-1.22-11.63-.87-8.61 0 0 .54-1.29.56-1.29 1.17-5.16 0-8.61-1.07-3.16-.19-2.7-.02-2.6-.49-.44-8.35-7.44-10.87-11.54-.95-1.58-1.44-2.36-1.66-2.68.1-.83.37-3.4.37-5.13 0-1.71-4.72-.85-6.01-.85-1.31 0-6.47 1.29-9.95 1.71-3.5.42-5.55 9.03-5.55 6.45 0-2.58-2.16-1.71-3.02-1.94-.85-.2-2.14-2.8-3-4.94-.87-2.16-2.16-1.29-3.87-3.45-1.73-2.16-3.02-3.02-4.74-7.76-1.73-4.72-3.02-3-6.45-9.9-3.45-6.88 0 0 .85-3.29.87-3.29 2.16-1.87 5.21-4.45 3.04-2.58 4.26-.87 4.26-.87s3 2.16 4.74 5.31c1.71 3.16 7.32 2.44 7.32 2.44s0 0-1.29-3.87c-.31-.9-.46-1.39-.54-1.63l-.07-.22c-.05-.15-.14-.37-.25-.75-.87-2.58-6.03-9.03-1.71-13.77 4.3-4.74 4.3-3 7.32-7.74 3-4.74 6.03-3.45 9.46-3.02 3.45.44 2.6.44 8.18 0 5.6-.42 6.45-.42 8.18-6.45 1.71-6.03 0 0-.87-5.6-.87-5.59 0-4.72 0-9.51 0-4.79-2.16-.39-5.16 0-3.02.37-3.87.48-5.6 1.77-1.71 1.29-4.3 4.74-7.74 5.6-3.45.85-2.16 0-6.89-1.75-4.74-1.75 0-4.28.87-8.15.87-3.89 4.18 0 4.18 0s1.43-1.73 4.01-3.45c2.58-1.73 4.3-.87 8.61-3.5 4.3-2.63 1.71 1.34 7.74 0s3.45-2.82 3.45-2.82v-2.8c0 0-4.31.51-8.18.07-3.87-.42-10.76.87-16.77 3.68-6.03 2.82-3.89 1.92-5.6.68s-11.63-.48-17.6 0c12.51-9.24 27.98-14.68 44.72-14.68 20.58 0 39.23 8.22 52.83 21.58-.98-.83-10.22 2.55-11.09 5.11-.85 2.58.44 3.45-2.58 6.45-3 3.02-3 3.02-9.9 5.6-6.89 2.58-6.03-1.29-9.9 4.74-3.87 6.01-4.74 7.3-3.87 10.32.87 3-.44 8.18 5.59 6.45 6.03-1.71 3.89-7.32 10.34-5.16 6.45 2.16 12.38 2.58 12.38 2.58s-2.24-6.45 0-7.74c2.26-1.29 6.37.85 9.05 3 2.68 2.16 2.68 1.73 4.4 4.31 1.71 2.58 3.45 3.7 4.74 3.34 1.29-.34 6.03-7.22 6.03-7.22l2.78-4.11c2.43 6.57 3.97 13.58 4.48 20.86h-.02c-4.67-2.99-5.53-2.56-12.85-2.56s-8.18 1.68-14.63-.02c-6.45-1.7-6.03-2.99-13.77-2.56-7.74.42-6.45-.97-11.19 2.53-4.74 3.5-7.32-.08-8.61 7.95-1.29 8.03-3.45 6.74 0 13.63 3.45 6.88 3.45 5.59 6.88 12.48 3.45 6.89 6.03 1.29 4.74 11.19s-1.29 11.63-1.29 13.34c0 1.73-.87 6.89-.87 9.05C438.25 600.81 440.81 599.45 441.7 604.25zM441.27 497.08v-6.88c-2.58 0 1.29-3.02-2.58 0-3.87 3-5.16 6.45-6.03 7.74-.87 1.29-2.89 2.16-2.89 2.16L441.27 497.08z"></path><path fill="#50bfa5" d="M418.57 593.49c-.54 1.29-1.41-7.32-.54 1.29.87 8.61 3.29 7.32 1.22 11.63-2.09 4.3-4.67 8.03-4.67 8.03-20.32 0-38.74-8.01-52.31-21.05l.02-.02c0 0 .22-7.62 0-11.93-.2-4.3 1.51-2.58 2.8-3.43 1.29-.87 7.74-9.69 7.74-9.69s-1.71-2.36-2.58-4.94-4.31-4.31-7.96-9.05c-3.65-4.74-4.96-5.16-4.96-5.16s-6.45-3.87-8.61-5.06c-2.16-1.19-3.45-2.26-6.45-5.13-2.78-2.67-2.89-5.7-2.89-6.15h-.02c1.8-22.41 13.39-42.05 30.49-54.63 5.98-.48 15.89-1.24 17.6 0s-.42 2.14 5.6-.68c6.01-2.82 12.9-4.11 16.77-3.68 3.87.44 8.18-.07 8.18-.07v2.8c0 0 2.58 1.48-3.45 2.82s-3.45-2.63-7.74 0c-4.31 2.63-6.03 1.77-8.61 3.5-2.58 1.71-4.01 3.45-4.01 3.45s-3.31-3.89-4.18 0c-.87 3.87-5.6 6.4-.87 8.15 4.74 1.75 3.45 2.6 6.89 1.75 3.45-.87 6.03-4.31 7.74-5.6 1.73-1.29 2.58-1.39 5.6-1.77 3-.39 5.16-4.79 5.16 0 0 4.79-.87 3.92 0 9.51.87 5.6 2.58-.42.87 5.6-1.73 6.03-2.58 6.03-8.18 6.45-5.59.44-4.74.44-8.18 0-3.43-.42-6.45-1.71-9.46 3.02-3.02 4.74-3.02 3-7.32 7.74-4.31 4.74.85 11.19 1.71 13.77.12.37.2.59.25.75l.07.22c.08.24.24.73.54 1.63 1.29 3.87 1.29 3.87 1.29 3.87s-5.6.71-7.32-2.44c-1.73-3.16-4.74-5.31-4.74-5.31s-1.22-1.71-4.26.87c-3.06 2.58-4.35 1.15-5.21 4.45-.85 3.29-4.3-3.58-.85 3.29 3.43 6.89 4.72 5.18 6.45 9.9 1.71 4.74 3 5.6 4.74 7.76 1.71 2.16 3 1.29 3.87 3.45.87 2.14 2.16 4.74 3 4.94.87.22 3.02-.65 3.02 1.94 0 2.58 2.05-6.03 5.55-6.45 3.48-.42 8.64-1.71 9.95-1.71 1.29 0 6.01-.87 6.01.85 0 1.73-.27 4.3-.37 5.13-.12-.17-.17-.22-.19-.2 0 .07.14.37.14.46.02-.02.03-.12.05-.25.22.32.71 1.1 1.66 2.68 2.51 4.11 10.37 11.1 10.87 11.54-.17-.1-1.05-.56.02 2.6C419.74 588.33 419.13 592.2 418.57 593.49zM444.73 608.16c-.25.08-2.21.56-3.04-3.9-.88-4.8-3.45-3.45-3.45-5.59 0-2.16.87-7.32.87-9.05 0-1.71 0-3.45 1.29-13.34s-1.29-4.3-4.74-11.19c-3.43-6.89-3.43-5.6-6.88-12.48-3.45-6.89-1.29-5.6 0-13.63 1.29-8.03 3.87-4.45 8.61-7.95 4.74-3.5 3.45-2.11 11.19-2.53 7.74-.42 7.32.87 13.77 2.56 6.45 1.7 7.32.02 14.63.02s8.18-.42 12.85 2.56h.02c.12 1.77.19 3.53.19 5.33 0 30.97-18.64 57.57-45.31 69.2V608.16zM438.69 490.2c3.87-3.02 0 0 2.58 0v6.88l-11.49 3.02c0 0 2.02-.87 2.89-2.16C433.53 496.65 434.82 493.21 438.69 490.2zM485.38 512.76v.02l-2.78 4.11c0 0-4.74 6.88-6.03 7.22-1.29.36-3.02-.76-4.74-3.34-1.71-2.58-1.71-2.16-4.4-4.31-2.68-2.16-6.79-4.3-9.05-3-2.24 1.29 0 7.74 0 7.74s-5.92-.42-12.38-2.58c-6.45-2.16-4.31 3.45-10.34 5.16-6.03 1.73-4.72-3.45-5.59-6.45-.87-3.02 0-4.31 3.87-10.32 3.87-6.03 3-2.16 9.9-4.74 6.89-2.58 6.89-2.58 9.9-5.6 3.02-3 1.73-3.87 2.58-6.45.87-2.56 10.1-5.94 11.09-5.11 0 .02.02.02.02.02C475.29 492.83 481.47 502.24 485.38 512.76z"></path></g><g clip-path="url(#b)"><path fill="#fae0b2" d="M489.15,565.66l3.72,3.35c4.86,4.38,12.42,3.99,16.8-0.87l0,0c4.38-4.86,3.99-12.42-0.87-16.8         l-3.72-3.35c-4.86-4.38-12.42-3.99-16.8,0.87l0,0C483.9,553.72,484.29,561.28,489.15,565.66z"></path><path fill="#fae0b2" d="M509.37,556.48L509.37,556.48c2.23-0.37,4.21,3.91,3.84,1.68l-1.91-15.12         c-0.37-2.23-2.5-3.75-4.73-3.38l0,0c-2.23,0.37-3.75,2.5-3.38,4.73l1.45,8.71C505.01,555.33,507.14,556.85,509.37,556.48z"></path><path fill="#fae0b2" d="M503.97,552.53L503.97,552.53c1.51-1.68,1.38-4.29-0.3-5.81l-6.56-5.92c-1.68-1.52-4.29-1.38-5.81,0.3         l0,0c-1.52,1.68-1.38,4.29,0.3,5.81l6.56,5.92C499.84,554.34,502.46,554.21,503.97,552.53z"></path><path fill="#fae0b2" d="M496.4,552.59L496.4,552.59c1.52-1.68,1.38-4.29-0.3-5.81l-6.56-5.92c-1.68-1.52-4.29-1.38-5.81,0.3         l0,0c-1.51,1.68-1.38,4.29,0.3,5.81l6.56,5.92C492.27,554.41,494.89,554.27,496.4,552.59z"></path><path fill="#fae0b2" d="M494.53,557.82L494.53,557.82c1.52-1.68,1.38-4.29-0.3-5.81l-6.56-5.92c-1.68-1.52-4.29-1.38-5.81,0.3         l0,0c-1.52,1.68-1.38,4.29,0.3,5.81l6.56,5.92C490.4,559.64,493.01,559.5,494.53,557.82z"></path><path fill="#fae0b2" d="M494.84,565.01L494.84,565.01c1.52-1.68,1.38-4.29-0.3-5.81l-6.56-5.92c-1.68-1.52-4.29-1.38-5.81,0.3         h0c-1.51,1.68-1.38,4.29,0.3,5.81l6.56,5.92C490.72,566.82,493.33,566.69,494.84,565.01z"></path><path fill="#3c8f7c" d="M568.47,555.4c17.85-24.74,44.73-29.46,48.02-29.96c-23.39,4.07-41.33,24.01-42.29,48.32        c-0.03,0.69-0.05,1.39-0.05,2.09v30.59c-39.32,22.06-75.74-31.15-75.74-31.15l18.17-16.86        C531.27,574.43,549.43,581.78,568.47,555.4z"></path><path fill="#50bfa5" d="M717.37,616.64c0,31.84-7.95,57.77-32.73,81.65c-0.85-0.25-3.38-0.81-9.77-6.98        c-4.02-3.86-6.78-12.64-6.78-12.64s1.3-2.13,3.14-5.78l-8.98,0.01l-55.66,0.05l-31.7,0.03c-2.66,0.01-4.77-2.23-4.6-4.89        l3.85-61.67v-30.59c0-0.7,0.02-1.4,0.05-2.09c0.96-24.3,18.9-44.25,42.29-48.32c0.11-0.02,0.22-0.03,0.33-0.05        c2.76-0.46,5.59-0.7,8.48-0.7h18.12c2.87,0,5.71,0.24,8.45,0.7c3.77,0.62,7.4,1.66,10.84,3.07        C692.29,538.95,717.37,575.76,717.37,616.64z"></path><path fill="#f7cc7f" d="M654.47,673H598.8v-0.04l9.24-137.79c0,0,6.58-10.48,9.47-10.48h18.12c2.87,0,5.71,0.24,8.45,0.7        l0.71,10.07l9.67,137.45L654.47,673z"></path><path fill="#50bfa5" d="M608.55 527.15L598.8 690.1l-30.59-6.53 11.41-80.51c0 0 4.22-25.74 8.07-40.02C591.54 548.75 608.55 527.15 608.55 527.15zM644.08 525.39l10.39 164.62 36.54-4.11c0 0 5.42-26.62 10.5-51.61 5.08-24.99.45-68.62-12.23-80.83C676.61 541.25 644.08 525.39 644.08 525.39z"></path><path fill="#3c8f7c" d="M659.9,575c0,0,5.78,12.81,10.11,32.71c4.33,19.9-1.92,70.97-1.92,70.97l3.14-6.1        c0,0,14.22-29.18,12.12-47.13C681.26,607.49,674.23,591.59,659.9,575z"></path><g><rect width=".85" height="13.38" x="495.03" y="539.98" fill="#fe875e" transform="rotate(-45.001 495.453 546.676)"></rect></g><g><rect width=".85" height="13.11" x="487.21" y="543.6" fill="#fe875e" transform="rotate(-45.001 487.633 550.159)"></rect></g><g><rect width=".85" height="11.26" x="486.71" y="551.46" fill="#fe875e" transform="rotate(-44.992 487.146 557.103)"></rect></g><g><path fill="#fae0b2" d="M644.85,537.48c-4.44,2.14-11.13,3.19-18.33,3.19c-7.51,0-14.22-1.47-18.66-3.77l0.61-8.98l0.05-0.75        c0.01-0.01,0.03-0.01,0.03-0.01h-0.03c0,0,0.44-0.16,0.99-0.53c0.9-0.61,2.06-1.8,1.95-3.78c-0.04-0.95-0.94-3.68-0.94-3.68        l-1-3.82l-0.02-0.04l-3.6-13.88l36.11-3.16c0,0-3.09,16.6-2.6,22.75c0.32,4.08,4.8,3.69,4.8,3.69L644.85,537.48z"></path><path fill="#fe875e" d="M636.82,509c0,0-2.73,14.57-22.93,18.14c-1.28,0.23-3.77,0.59-5.43,0.77l0.05-0.75        c0.01-0.01,0.03-0.01,0.03-0.01h-0.03c0,0,0.44-0.16,0.99-0.53c0.9-0.61,2.06-1.8,1.95-3.78c-0.04-0.95-1.01-3.96-1.01-3.96        S629.88,520.75,636.82,509z"></path><path fill="#fae0b2" d="M648.95,486.96c-0.6,16.79-11.15,32.31-27.94,31.71c-16.79-0.6-31.57-0.01-32.86-33.89        c-0.9-23.52,14.7-29.91,31.49-29.31C636.43,456.07,649.55,470.17,648.95,486.96z"></path><path fill="#13375b" d="M592.46,473.93c1.33,0.98,3.38,1.78,6.51,2.12c10.92,1.15,30.77-7.77,30.77-7.77s-1.95,5.91-1.29,16.59        c0,0,3.52-6.78,8.53-0.29c4.48,5.83-1.9,12.72-5.74,11.22c0,0-1.77,13.21-8.37,14.4c-6.61,1.19-7.87-4.98-17.75-7.48        c-9.87-2.5-13.21,2.62-13.21,2.62c8.55,20.16,37.15,12.78,37.15,12.78s3.55,3.57,11.18,2.79s9.14-17.22,9.14-17.22        c5.16,1.84,11-8.29,11.89-23.75c0.9-15.45-13.42-15.92-13.42-15.92s1.71-10.82-15.05-16.87c-16.33-5.89-22.13,0.46-22.43,0.79        c0.15-0.5,3.31-11.06-5.25-11.22c-8.77-0.16-7.67,8.83-7.67,8.83c-9.79-8.86-23.77,3.21-21.25,13.35        c2.51,10.15,14.15,9.08,14.15,9.08S589.16,471.49,592.46,473.93L592.46,473.93z"></path><path fill="#13375b" d="M628.57,475.14c0,0-0.45,10.54,0.1,17.18c0.55,6.65,0.99,13.42-3.28,16.69c0,0,8.18-2.41,5.95-14.21        s-1.57-12.61-0.17-16.4C632.57,474.62,628.57,475.14,628.57,475.14z"></path></g><path fill="#1d135b" d="M521.69,563.12c0.01-0.03,0.01-0.05,0.02-0.08c0-0.03-0.01-0.05-0.01-0.08c0-0.03-0.01-0.05-0.02-0.08       c-0.01-0.03-0.03-0.05-0.04-0.07c-0.01-0.02-0.02-0.04-0.04-0.06c0,0-0.01,0-0.01-0.01c0,0,0-0.01-0.01-0.01l-4.49-4.44       c-0.02-0.02-0.04-0.02-0.06-0.04c-0.02-0.02-0.05-0.04-0.07-0.05c-0.02-0.01-0.05-0.01-0.08-0.02       c-0.03-0.01-0.05-0.02-0.08-0.02c-0.03,0-0.05,0.01-0.08,0.01c-0.03,0-0.05,0.01-0.08,0.02c-0.03,0.01-0.05,0.03-0.08,0.05       c-0.02,0.01-0.04,0.02-0.06,0.04l-3.35,3.04c0,0,0,0,0,0c0,0,0,0,0,0l-1.67,1.51c0,0,0,0,0,0l0,0l-3.33,3.03c0,0,0,0,0,0       c0,0,0,0,0,0l-1.67,1.51h0c0,0,0,0,0,0l-8.37,7.6c-0.02,0.02-0.03,0.04-0.04,0.05c-0.02,0.02-0.04,0.04-0.05,0.07       c-0.01,0.03-0.02,0.05-0.03,0.08c-0.01,0.03-0.02,0.05-0.02,0.08c0,0.03,0,0.06,0,0.08c0,0.03,0,0.05,0.01,0.08       c0.01,0.03,0.02,0.05,0.04,0.08c0.01,0.02,0.01,0.04,0.03,0.06l3.8,5.09c0,0,0.01,0.01,0.01,0.01       c0.01,0.01,0.01,0.01,0.01,0.02c0.03,0.03,0.06,0.04,0.09,0.06c0.02,0.01,0.03,0.03,0.05,0.04c0.06,0.03,0.12,0.04,0.18,0.04       c0.08,0,0.16-0.03,0.23-0.08c0.01,0,0.02,0,0.02-0.01c0.01,0,0.01-0.01,0.01-0.01c0.01,0,0.01-0.01,0.02-0.01l8.67-7.88l0,0       l0,0l1.74-1.58c0,0,0,0,0,0c0,0,0,0,0,0l3.48-3.16c0,0,0,0,0,0c0,0,0,0,0,0l1.74-1.58c0,0,0,0,0,0s0,0,0,0l3.46-3.15       c0,0,0-0.01,0.01-0.01c0,0,0.01,0,0.01-0.01c0.02-0.02,0.03-0.04,0.04-0.06c0.02-0.02,0.04-0.04,0.05-0.07       C521.68,563.17,521.68,563.14,521.69,563.12z M519.56,564.01l-3.83-3.89l1.04-0.95l3.89,3.84L519.56,564.01z M517.83,565.59       l-3.78-3.95l1.04-0.95l3.83,3.89L517.83,565.59z M516.1,567.16l-3.72-4l1.04-0.95l3.78,3.95L516.1,567.16z M514.37,568.74       l-3.67-4.05l1.04-0.95l3.72,4L514.37,568.74z M512.64,570.31l-3.61-4.1l1.04-0.95l3.67,4.05L512.64,570.31z M510.91,571.88       l-3.56-4.15l1.04-0.95l3.61,4.1L510.91,571.88z M509.18,573.46l-3.51-4.2l1.04-0.95l3.56,4.15L509.18,573.46z M507.45,575.03       l-3.45-4.25l1.04-0.95l3.51,4.2L507.45,575.03z M505.72,576.6l-3.4-4.3l1.04-0.95l3.45,4.25L505.72,576.6z M503.99,578.18       l-3.34-4.35l1.04-0.95l3.4,4.3L503.99,578.18z M502.26,579.75l-3.29-4.4l1.04-0.95l3.34,4.35L502.26,579.75z"></path></g><g clip-path="url(#b)"><polygon fill="#9bc1f9" points="450.94 456.24 459.67 494.01 565.75 494.01 585.57 510.11 563.22 456.24"></polygon><path fill="#466eb6" d="M553.86 469.04h-74.39c-1.06 0-1.91-.86-1.91-1.91 0-1.06.86-1.91 1.91-1.91h74.39c1.06 0 1.91.86 1.91 1.91C555.77 468.19 554.92 469.04 553.86 469.04zM551.63 476.2h-83.51c-1.06 0-1.91-.86-1.91-1.91 0-1.06.86-1.91 1.91-1.91h83.51c1.06 0 1.91.86 1.91 1.91C553.54 475.34 552.68 476.2 551.63 476.2zM549.53 482.92h-83.51c-1.06 0-1.91-.86-1.91-1.91 0-1.06.86-1.91 1.91-1.91h83.51c1.06 0 1.91.86 1.91 1.91C551.44 482.06 550.58 482.92 549.53 482.92z"></path></g><path fill="#466eb6" d="M734.48,430.67v4.48H342.42v-4.48c0-11.48,9.08-22.38,21.68-22.38h348.92     C722.51,408.29,734.48,416.8,734.48,430.67z"></path><circle cx="365.2" cy="421.87" r="5.1" fill="#171c51"></circle><path fill="#171c51" d="M396.61,421.87c0,2.81-2.28,5.1-5.1,5.1c-2.81,0-5.1-2.28-5.1-5.1s2.28-5.1,5.1-5.1     C394.33,416.77,396.61,419.06,396.61,421.87z"></path><circle cx="416.5" cy="421.87" r="5.1" fill="#171c51"></circle><g><polygon fill="#fff" points="508.28 642.48 441.41 642.48 365.98 408.3 432.85 408.3"></polygon><polygon fill="#fff" points="546.33 642.48 526.37 642.48 450.94 408.3 470.89 408.3"></polygon><polygon fill="#fff" points="704.23 642.48 637.36 642.48 561.93 408.3 628.81 408.3"></polygon><path fill="#fff" d="M734.48,618.28v1.83c0,8.94-5.25,16.67-12.85,20.24L646.9,408.3h19.95L734.48,618.28z"></path></g><g><path fill="#fae0b2" d="M331.04,703.38c0,0-2.28,7.44,0.09,16.57l7.94-0.66l22.56-1.72v-0.01c0,0-0.68-3.6-0.68-7.82       c0-3.88,0.68-7.83,0.68-7.83l-22.23,1.05L331.04,703.38z"></path><path fill="#f79c8d" d="M328.66,699.89c0,0-4.41,10.27,0,23.56l33.56-2.21c0.72-0.05,1.29-0.91,1.26-1.92       c-0.03-1-0.62-1.79-1.33-1.79c-0.02,0-0.04,0-0.06,0l-0.48,0.04l-22.56,1.72l-7.94,0.66c-2.37-9.13-0.09-16.57-0.09-16.57       l8.35-0.42l22.23-1.05l0.54-0.03c0.71-0.04,1.28-0.85,1.28-1.86c0-1.02-0.59-1.85-1.32-1.85c-0.02,0-0.04,0-0.06,0       L328.66,699.89z"></path><polygon fill="#f47458" points="228.57 696.68 231.78 696.68 328.66 699.89 362.07 698.16 264.57 696.23"></polygon><path fill="#f47458" d="M228.57,696.68c0,0-4.67,13.77-0.52,24h3.72l96.89,2.78c-4.41-13.29,0-23.56,0-23.56l-96.89-3.22H228.57z       "></path><path fill="#e5bd83" d="M330.53 708.1c3.49.16 6.97.05 10.45-.13 3.47-.21 6.94-.48 10.4-1.03-3.49-.16-6.97-.05-10.45.13C337.45 707.27 333.98 707.55 330.53 708.1zM348.35 713.68c1.95.17 3.87.07 5.78-.09 1.91-.19 3.82-.46 5.7-.99-1.95-.18-3.87-.07-5.78.09C352.14 712.88 350.23 713.14 348.35 713.68z"></path><path fill="#f8c558" d="M345.78 716.58c1.44-2.24 1.17-7.33-.49-9.4-2.93.15-5.87.31-8.8.46 1.67 2.07 1.94 7.16.49 9.4 1.81-.7 3.56-1.58 5.19-2.57C343.48 715.31 344.66 716.04 345.78 716.58zM320.48 723.19c-4.15-10.23.51-23.57.51-23.57h-9.06c0 0-4.66 13.34-.51 23.57H320.48zM244.38 721.12c-4.15-10.23.51-23.57.51-23.57h-9.06c0 0-4.66 13.34-.51 23.57H244.38z"></path><g><path fill="#fae0b2" d="M268.1,679.62c0,0,3.2,7.44-0.12,16.57l-12.61-0.69l-31.62-1.72v-0.01c0,0,0.96-3.6,0.96-7.82       c0-3.88-0.96-7.83-0.96-7.83v-0.01l31.17,1.06L268.1,679.62z"></path><path fill="#50bfa5" d="M223.09,693.74l0.66,0.04l31.62,1.72l12.61,0.69c3.32-9.13,0.12-16.57,0.12-16.57l-13.18-0.45       l-31.17-1.06l-0.75-0.02c-1-0.04-1.79-0.85-1.79-1.86c0-1.02,0.83-1.85,1.84-1.85c0.03,0,0.05,0,0.08,0l46.82,1.73       c0,0,6.18,10.27,0,23.56l-47.04-2.21c-1.01-0.05-1.8-0.91-1.77-1.92c0.04-1,0.87-1.79,1.87-1.79       C223.04,693.74,223.06,693.74,223.09,693.74z"></path><polygon fill="#3c8f7c" points="223.14 674.37 351.43 672.76 350.72 672.78 269.95 676.11"></polygon><path fill="#3c8f7c" d="M271.52,676.04l79.2-3.26c3.95-0.16,7.24,2.99,7.26,6.95l0.05,9.87c0.02,3.77-2.95,6.88-6.72,7.02       l-81.36,3.05c6.18-13.29,0-23.56,0-23.56L271.52,676.04z"></path><path fill="#e5bd83" d="M267.87 685.99c-2.44.17-4.88.2-7.32.17-2.43-.02-4.86-.12-7.29-.24-2.43-.15-4.85-.31-7.27-.57-2.42-.24-4.84-.54-7.25-.98 2.44-.17 4.88-.2 7.32-.17 2.43.02 4.86.12 7.29.24 2.43.15 4.85.32 7.27.57C263.04 685.25 265.46 685.55 267.87 685.99zM242.03 689.89c-2.71.17-5.39.07-8.08-.09-2.68-.19-5.36-.46-8.02-1 2.71-.18 5.39-.08 8.08.09C236.7 689.09 239.38 689.35 242.03 689.89z"></path><path fill="#f47458" d="M246.37,700.55c-2.47-3.64-2.22-12.27,0.46-15.76c4.85,0.14,9.53,0.74,14.38,0.88      c-2.68,3.49-2.75,11.67-0.28,15.3c-3.02-1.08-5.95-2.47-8.68-4.04C250.13,698.35,248.2,699.61,246.37,700.55z"></path></g><g><path fill="#355389" d="M314.97,652.13l-2.29,0.21c5.71,0.41,10,5.35,9.59,11.06l-0.22,3.16c-0.34,4.76-3.85,8.54-8.33,9.41       l36.85-2.96c6.14-0.6,10.62-6.08,9.99-12.22l-0.18-1.7c-0.62-6.05-5.99-10.48-12.05-9.94l-0.01,0L314.97,652.13z"></path><polygon fill="#355389" points="226.23 650.37 312.68 652.34 314.97 652.13 348.32 649.16 348.33 649.16 348.73 649.13"></polygon><path fill="#466eb6" d="M228.72,653.86l83.77,2.19c1.89,0.16,3.6,1.09,4.76,2.63c1,1.34,1.42,3.02,1.29,4.7l-0.21,2.92       c-0.24,3.4-3.1,6.11-6.5,6.17c-0.19,0-0.39-0.01-0.59-0.02l-0.09-0.01l-82.55-1.87l-2.05-0.05c-0.97-0.02-1.76,0.77-1.74,1.74       l0,0.3c0.01,0.91,0.75,1.65,1.66,1.68l84.5,1.92c0.94,0.07,1.86,0.01,2.74-0.17c4.47-0.87,7.99-4.65,8.33-9.41l0.22-3.16       c0.41-5.71-3.89-10.65-9.59-11.06l-86.44-1.97c-0.97-0.02-1.76,0.76-1.74,1.74c0.01,0.91,0.74,1.65,1.65,1.68L228.72,653.86z"></path><path fill="#fae0b2" d="M228.6,670.56l82.55,1.87l0.09,0.01c0.19,0.01,0.39,0.02,0.59,0.02c3.4-0.05,6.26-2.77,6.5-6.17       l0.21-2.92c0.12-1.67-0.29-3.36-1.29-4.7c-1.16-1.53-2.87-2.47-4.76-2.63l-83.77-2.19c0.03,0.15,1.09,5.13,1.14,8.33       C229.91,665.38,228.6,670.56,228.6,670.56z"></path><path fill="#e5bd83" d="M311.29 660.89c-2.42-.4-4.84-.66-7.27-.87-2.42-.21-4.85-.34-7.28-.45-2.43-.08-4.86-.15-7.3-.13-2.43.01-4.87.08-7.31.29 2.42.41 4.84.66 7.27.87 2.42.21 4.85.34 7.28.45 2.43.08 4.86.15 7.3.12C306.41 661.17 308.84 661.1 311.29 660.89zM291.3 667.68c-2.42-.4-4.84-.66-7.27-.87-2.42-.21-4.85-.34-7.28-.45-2.43-.08-4.86-.15-7.3-.13-2.43.01-4.87.08-7.31.29 2.42.4 4.84.66 7.27.87 2.42.21 4.85.34 7.28.45 2.43.08 4.86.15 7.3.12C286.42 667.96 288.86 667.9 291.3 667.68z"></path><path fill="#50bfa5" d="M288.01,680.3c-3.36-4.49-3.57-15.62-0.36-20.22c6.19-0.1,11.7,0.56,17.89,0.46      c-3.21,4.6-2.31,14.97,1.05,19.46c-3.91-1.2-7.72-2.81-11.29-4.66C292.67,677.29,290.29,678.99,288.01,680.3z"></path><path fill="#e5bd83" d="M269.9,663.34c-3.33-0.4-6.66-0.66-9.99-0.86c-3.33-0.21-6.67-0.34-10-0.45      c-3.34-0.08-6.67-0.15-10.01-0.12c-3.34,0.01-6.68,0.08-10.03,0.29c3.33,0.4,6.66,0.66,9.99,0.87c3.33,0.21,6.67,0.34,10,0.45      c3.34,0.08,6.67,0.15,10.01,0.12C263.21,663.61,266.55,663.55,269.9,663.34z"></path></g><g><path fill="#fae0b2" d="M345.71,579.43H237.2c0,0,1.89,7.85,1.89,16.39c0,8.29-1.89,16.39-1.89,16.39h108.51       c3.85,0,6.97-3.12,6.97-6.97v-18.83C352.67,582.55,349.55,579.43,345.71,579.43z"></path><path fill="#184655" d="M235.74,574.97c-1.23,0-2.23,1-2.23,2.23c0,0.62,0.25,1.17,0.65,1.58c0.4,0.41,0.96,0.65,1.58,0.65h1.46       h108.51c3.85,0,6.97,3.12,6.97,6.98v18.83c0,3.85-3.12,6.97-6.97,6.97H237.2h-1.46c-1.23,0-2.23,1-2.23,2.23       c0,0.62,0.25,1.17,0.65,1.58c0.4,0.4,0.96,0.65,1.58,0.65h109.97c6.32,0,11.43-5.12,11.43-11.43V586.4       c0-6.31-5.11-11.43-11.43-11.43H235.74z"></path><path fill="#e5bd83" d="M338.55 585.77c-6.43-.29-12.85-.48-19.28-.58-6.43-.12-12.85-.15-19.28-.16-6.43.01-12.85.04-19.28.16-6.43.1-12.85.29-19.28.58 6.43.29 12.85.48 19.28.58 6.43.12 12.85.15 19.28.16 6.43-.01 12.85-.05 19.28-.16C325.7 586.25 332.12 586.06 338.55 585.77zM342.57 595.82c-2.43-.31-4.86-.47-7.28-.58-2.43-.12-4.86-.15-7.28-.17-2.43.01-4.86.04-7.28.16-2.43.11-4.86.27-7.28.58 2.43.31 4.86.47 7.28.58 2.43.12 4.86.15 7.28.16 2.43-.01 4.86-.05 7.28-.16C337.71 596.29 340.14 596.13 342.57 595.82zM323.98 606.12c-2.43-.31-4.86-.47-7.28-.58-2.43-.12-4.86-.15-7.28-.16-2.43.01-4.86.04-7.28.16-2.43.11-4.86.27-7.28.58 2.43.31 4.86.47 7.28.58 2.43.12 4.86.15 7.28.16 2.43-.01 4.86-.05 7.28-.16C319.13 606.59 321.55 606.43 323.98 606.12zM308.65 600.09c-5.61-.29-11.22-.48-16.83-.58-5.61-.12-11.22-.15-16.83-.16-5.61.01-11.22.04-16.83.16-5.61.1-11.22.29-16.83.58 5.61.29 11.22.48 16.83.58 5.61.12 11.22.15 16.83.16 5.61-.01 11.22-.05 16.83-.16C297.43 600.57 303.04 600.38 308.65 600.09z"></path><path fill="#355389" d="M319.96,615.66c3.29-6.21,3.29-13.64,0-19.84c6.19,0,12.39,0,18.59,0c3.29,6.21,3.29,13.64,0,19.84      c-2.2-1.69-4.65-3.47-7.34-5.29C327.7,612.19,323.95,613.97,319.96,615.66z"></path></g><g><rect width="6.91" height="32.79" x="254.62" y="616.69" fill="#fe875e"></rect><rect width="11.5" height="32.79" x="243.12" y="616.69" fill="#f7cc7f"></rect><rect width="79.81" height="32.79" x="261.53" y="616.69" fill="#f7cc7f"></rect><rect width="6.91" height="32.79" x="341.34" y="616.69" fill="#fe875e"></rect><rect width="11.5" height="32.79" x="348.24" y="616.69" fill="#f7cc7f"></rect><path fill="#355389" d="M359.82,626.09c0,0,8.83,4.26,10.24,15.76l-3.78-3.15l-1.34,3.15c0,0-0.87-9.77-5.12-13.55V626.09z"></path><path fill="#fe875e" d="M269.91,633.08c0,4.09,14.02,7.41,31.31,7.41c17.29,0,31.31-3.32,31.31-7.41c0-4.09-14.02-7.41-31.31-7.41      C283.93,625.67,269.91,628.99,269.91,633.08z"></path></g></g><g><path fill="#13375b" d="M328.6,457.59c5.27,2.11,8.09,10.93,8.48,22.23c0.38,11.3,6.81,26.15-0.24,29.97     c-7.05,3.83-18.88-5.33-28.01,2.71c-9.13,8.04-22.43,8.78-22.43,8.78s-8.3-6.58-5.03-25.38c3.26-18.8,15.69-12.24,21.25-20.03     C308.16,468.07,310.79,450.46,328.6,457.59z"></path><path fill="#f47458" d="M325.6,493.82c0,0-18.43-3.87-17.84,2.16c0.25,2.57,8.22,14.1,8.41,15.06c0.12,0.7,0.28,1.41,0.43,2.12      c0.15,0.71,0.3,1.41,0.49,2.13c0.18,0.72,0.34,1.42,0.54,2.14l0.63,2.16c0.1,0.36,0.22,0.72,0.35,1.09l0.37,1.1l0.38,1.09      l0.44,1.12l0.45,1.12c0.08,0.19,0.15,0.37,0.23,0.56l0.27,0.58l0.55,1.15l0.28,0.57l0.14,0.29l0.23,0.43      c0.34,0.59,0.67,1.19,1.05,1.75c0.4,0.55,0.81,1.08,1.23,1.6c0.44,0.48,0.9,0.95,1.36,1.4c0.47,0.42,0.95,0.81,1.44,1.19      c1.96,1.44,3.93,2.37,5.8,3c0.46,0.14,0.94,0.32,1.39,0.42l1.35,0.34c0.88,0.18,1.76,0.33,2.6,0.43      c1.69,0.21,3.32,0.29,4.88,0.26c3.14-0.04,3.53-14.67,1.44-15.2c-1.05-0.26-2.02-0.58-2.9-0.91c-0.21-0.09-0.44-0.16-0.63-0.26      c-0.2-0.1-0.39-0.19-0.59-0.27l-0.52-0.28c-0.18-0.09-0.3-0.2-0.45-0.29c-0.55-0.38-0.84-1.69-0.84-1.69l-0.19-0.67l-0.1-0.33      c-0.03-0.12-0.05-0.25-0.08-0.37l-0.16-0.75l-0.18-0.74l-0.15-0.8c-0.09-0.54-0.21-1.05-0.29-1.62      c-0.19-1.11-0.57-4.95-1.05-10.04C335.85,499.38,331.88,495.18,325.6,493.82L325.6,493.82z"></path><path fill="#f8c558" d="M290.7,537.62c-0.32-4.11-2.86-12.11-3.07-18.46c-0.44-13.23-0.11-25.98,21.12-26.1        c0.03-0.01,0.06-0.01,0.08-0.02c1.41-0.24,2.44-0.34,2.93-0.39c0.21-0.02,0.32-0.02,0.32-0.02        c9.92-0.28,17.03,0.75,17.89,7.96c0.52,4.4,4.15,6.32,4.81,11.05c0.86,6.15-0.88,7.18-2.46,12.31        c-1.25,4.06,9.73,31.49,9.73,31.49l-52.74,1.01C289.31,556.45,291.45,547.41,290.7,537.62z"></path><path fill="#587cf8" d="M311.76,492.66c-0.49,0.04-1.53,0.15-2.93,0.39C309.78,492.86,310.76,492.73,311.76,492.66z"></path><path fill="#fae0b2" d="M309.28,481.13l13.68,2.35l-1.81,5.18l-0.01,0.02l-0.5,1.43l-0.48,1.37l-0.1,0.28l-1.65,0.19l1.09,1.06       c0,0-0.53,2.14-4.84,2.14c-4.31,0-5.84-2.11-5.84-2.11L309.28,481.13z"></path><path fill="#fae0b2" d="M308.84,476.94c-0.3,6.43,3.23,11.73,9.4,13.57c4.72,1.41,8.37-0.57,13.88-12.48       c2.7-5.84-4.66-11.88-11.09-12.18C314.6,465.55,309.14,470.51,308.84,476.94z"></path><path fill="#fe875e" d="M319.03,493.77c0,0,0.3-0.25,0.47-0.76c0.18-0.55,0.97-2.12,0.97-2.12s-7.39-0.87-9.11-5.81       C311.36,485.09,310.05,491.17,319.03,493.77z"></path><path fill="#f47458" d="M298.76,495.34c-15.58-0.19-10.7,36.99,0.77,41.93c14.13,6.09,22.66,4.02,22.66,4.02l0.11-8.51     c-0.08-0.04-16.75-2.67-17.15-7.94C304.27,513.28,312.83,496.33,298.76,495.34L298.76,495.34z"></path><path fill="#d1d1d1" d="M339.3,544.77l-20.67-0.01c0.43,0,0.83,0.15,1.12,0.39c0.29,0.24,0.46,0.57,0.46,0.94      c0,0.73-0.71,1.33-1.58,1.33l42.51,0.03c0.87,0,1.58-0.6,1.58-1.33c0-0.37-0.18-0.7-0.46-0.94c-0.29-0.24-0.68-0.39-1.12-0.39      L339.3,544.77z"></path><path fill="#9e9e9e" d="M295.45,544.74c-0.73,0-1.33,0.59-1.33,1.33c0,0.37,0.15,0.7,0.39,0.94c0.24,0.24,0.58,0.39,0.94,0.39      l23.44,0.02c0.73,0,1.33-0.6,1.33-1.33c0-0.37-0.15-0.7-0.39-0.94c-0.24-0.24-0.58-0.39-0.94-0.39l-22.95-0.02L295.45,544.74z"></path><path fill="#d1d1d1" d="M317.49,544.06c0.36,0.44,0.89,0.69,1.45,0.7l1.68,0c-0.57,0-1.1-0.26-1.45-0.7      c-0.36-0.44-0.5-1.01-0.38-1.57l5.57-26.54c0.18-0.86,0.96-1.49,1.84-1.49l-1.68,0c-0.88,0-1.66,0.63-1.84,1.49l-5.57,26.54      C317,543.05,317.14,543.61,317.49,544.06z"></path><path fill="#f4f4f4" d="M319.17,544.06c0.36,0.44,0.89,0.69,1.45,0.7l40.34,0.03c0.88,0,1.66-0.63,1.84-1.49l5.57-26.54      c0.11-0.56-0.02-1.12-0.38-1.57c-0.35-0.44-0.89-0.69-1.45-0.7l-40.34-0.03c-0.88,0-1.66,0.63-1.84,1.49l-5.57,26.54      C318.67,543.05,318.81,543.61,319.17,544.06z"></path><path fill="#fff" d="M341.4,529.62c0,1.21,0.98,2.19,2.19,2.19c1.21,0,2.19-0.98,2.19-2.19c0-1.21-0.98-2.19-2.19-2.19      C342.38,527.43,341.4,528.41,341.4,529.62z"></path><path fill="#13375b" d="M308.65,474.2c0,0,14.52,4.83,22.3-2.96c0,0-4.95,5.62-8.38,5.02c0,0,4.86,1.51,8.38-4.02     c0,0,0.98,5.08,3.5,6.12c0,0,2.31-14.16-9.89-15.92C312.37,460.7,309.24,468.62,308.65,474.2z"></path><g><path fill="#fae0b2" d="M393.4,592.71c0,0,3.58,3.87,4.99,3.09l-14.65,9.64l-3.12-4.32L393.4,592.71z"></path><path fill="#13375b" d="M403.58,594l-4.12,1.43c-0.86,0.3-1.81,0.26-2.64-0.12l-1.96-1.18l-4.09,6.6l-8.81,2.28l0.87,1.2l4.63-1.3      l-3.83,2.52c-0.64,0.42-0.82,1.28-0.4,1.92l1.16,1.76c0.45,0.68,1.36,0.87,2.04,0.42l4.38-2.88l0-2.33l3.14,0.26l13.77-9.06      c0.27-0.18,0.29-0.57,0.04-0.77l0,0C406.61,593.78,405.02,593.5,403.58,594z"></path></g><g><path fill="#fae0b2" d="M364.12,616.67c0,0,0.87,5.2,2.47,5.32h-17.54l-0.24-5.32H364.12z"></path><path fill="#13375b" d="M371.93,623.34l-4.22-1.07c-0.89-0.22-1.65-0.78-2.14-1.55l-0.99-2.07l-7.04,3.27l-8.61-2.93l0.07,1.48      l4.59,1.46H349c-0.77,0-1.39,0.62-1.39,1.39v2.11c0,0.81,0.66,1.48,1.48,1.48h5.24l1.28-1.95l2.48,1.95h16.49      c0.32,0,0.56-0.32,0.46-0.62l0,0C374.58,624.82,373.4,623.71,371.93,623.34z"></path></g><path fill="#355389" d="M356.79,576.45l8.54,40.22H348l-14.04-42.5c0,0,5.03-2.3,12.14-5.31     C353.2,565.85,354.99,571.99,356.79,576.45z"></path><path fill="#466eb6" d="M289.66,565.67L289.66,565.67c2.07,11.96,8.04,14.89,23.83,13.06c19.79-2.29,30.78-9.17,30.78-9.17     l34.37,31.71l14.7-10.41c0,0-8.88-11.3-20.49-25.25c-12.28-14.77-14.91-23.01-38.08-17.46c-14.3,3.43-25.29,3.62-35.65,5.98h0     c-5.97,1.36-9.8,2.31-9.8,2.31C289.03,559.51,289.14,562.64,289.66,565.67z"></path><path fill="#11442f" d="M289.66 565.67L289.66 565.67c12.26.78 9.45-11.53 9.45-11.53h0c-5.97 1.36-9.8 2.31-9.8 2.31C289.03 559.51 289.14 562.64 289.66 565.67zM392.18 589.25l-15.22 10.95c-.72.52-.88 1.53-.37 2.24l0 0c.52.72 1.53.88 2.24.37l15.22-10.95c.72-.52.88-1.53.37-2.24l0 0C393.91 588.9 392.9 588.74 392.18 589.25zM365.76 613.45H347c-.88 0-1.61.72-1.61 1.61l0 0c0 .88.72 1.61 1.61 1.61h18.75c.88 0 1.61-.72 1.61-1.61l0 0C367.36 614.17 366.64 613.45 365.76 613.45z"></path></g></g></svg>